<svg width="24" height="24" viewBox="0 0 24 24" fill="none" xmlns="http://www.w3.org/2000/svg">
<path d="M19 2L14 6.5V17.5L19 13V2ZM6.5 5C4.6 5 2.5 5.4 1 6.5V21.2C1 21.5 1.3 21.7 1.5 21.7C1.6 21.7 1.6 21.6 1.8 21.6C3.1 21 5.1 20.5 6.6 20.5C8.5 20.5 10.7 20.9 12.1 22C13.5 21.1 15.9 20.5 17.6 20.5C19.2 20.5 21 20.8 22.4 21.6C22.5 21.7 22.5 21.6 22.7 21.6C23 21.6 23.2 21.3 23.2 21.1V6.5C22.6 6.1 21.9 5.7 21.2 5.5V7.5V13V19C20.1 18.6 18.9 18.5 17.7 18.5C16 18.5 13.6 19.1 12.2 20V13V8.5V6.5C10.6 5.4 8.4 5 6.5 5Z" fill="black"/>
</svg>
