<svg width="24" height="24" viewBox="0 0 24 24" fill="none" xmlns="http://www.w3.org/2000/svg">
<path d="M18.6002 2.79995L19.2002 6.69995L22.7002 8.49995L21.0002 12L22.8002 15.5L19.3002 17.2999L18.7002 21.2L14.8002 20.6L12.0002 23.2999L9.2002 20.5L5.3002 21.1L4.7002 17.2L1.2002 15.4L3.0002 12L1.2002 8.49995L4.7002 6.69995L5.3002 2.89995L9.2002 3.49995L12.0002 0.699951L14.8002 3.49995L18.6002 2.79995ZM9.5002 6.99995C8.7002 6.99995 8.0002 7.69995 8.0002 8.49995C8.0002 9.29995 8.7002 9.99995 9.5002 9.99995C10.3002 9.99995 11.0002 9.29995 11.0002 8.49995C11.0002 7.69995 10.3002 6.99995 9.5002 6.99995ZM14.5002 14C13.7002 14 13.0002 14.7 13.0002 15.5C13.0002 16.3 13.7002 17 14.5002 17C15.3002 17 16.0002 16.3 16.0002 15.5C16.0002 14.7 15.3002 14 14.5002 14ZM8.4002 17L17.0002 8.39995L15.6002 6.99995L7.0002 15.6L8.4002 17Z" fill="black"/>
</svg>
