<svg width="92" height="26" viewBox="0 0 92 26" fill="none" xmlns="http://www.w3.org/2000/svg">
<path d="M35.3006 9.37486C34.5206 9.37486 33.8149 9.204 33.1834 8.86229C32.5594 8.51315 32.0692 8.03772 31.7126 7.436C31.356 6.82686 31.1777 6.14343 31.1777 5.38572C31.1777 4.628 31.356 3.94829 31.7126 3.34658C32.0692 2.73743 32.5632 2.262 33.1946 1.92029C33.826 1.57115 34.5317 1.39658 35.3117 1.39658C35.9209 1.39658 36.478 1.50058 36.9832 1.70858C37.4883 1.90915 37.9192 2.21 38.2757 2.61115L37.5514 3.31315C36.9646 2.69658 36.2329 2.38829 35.3563 2.38829C34.7769 2.38829 34.2532 2.51829 33.7852 2.77829C33.3172 3.03829 32.9494 3.39858 32.682 3.85915C32.422 4.31229 32.292 4.82115 32.292 5.38572C32.292 5.95029 32.422 6.46286 32.682 6.92343C32.9494 7.37658 33.3172 7.73315 33.7852 7.99315C34.2532 8.25315 34.7769 8.38315 35.3563 8.38315C36.2254 8.38315 36.9572 8.07115 37.5514 7.44715L38.2757 8.14915C37.9192 8.55029 37.4846 8.85486 36.972 9.06286C36.4669 9.27086 35.9097 9.37486 35.3006 9.37486Z" fill="#4156A6"/>
<path d="M45.5259 8.31629V9.28572H39.8653V1.48572H45.3699V2.45515H40.9796V4.85086H44.8908V5.798H40.9796V8.31629H45.5259Z" fill="#4156A6"/>
<path d="M47.3302 1.48572H48.4445V8.31629H52.6676V9.28572H47.3302V1.48572Z" fill="#4156A6"/>
<path d="M56.1432 9.37486C55.5564 9.37486 54.9881 9.28572 54.4384 9.10743C53.8961 8.92172 53.4689 8.68401 53.1569 8.39429L53.5692 7.52515C53.8664 7.79258 54.2452 8.01172 54.7058 8.18258C55.1738 8.34601 55.6529 8.42772 56.1432 8.42772C56.7895 8.42772 57.2724 8.32 57.5918 8.10458C57.9112 7.88172 58.0709 7.58829 58.0709 7.22429C58.0709 6.95686 57.9818 6.74143 57.8035 6.578C57.6326 6.40715 57.4172 6.27715 57.1572 6.188C56.9046 6.09886 56.5444 5.99858 56.0764 5.88715C55.4895 5.74601 55.0141 5.60486 54.6501 5.46372C54.2935 5.32258 53.9852 5.10715 53.7252 4.81743C53.4726 4.52029 53.3464 4.12286 53.3464 3.62515C53.3464 3.20915 53.4541 2.834 53.6695 2.49972C53.8924 2.16543 54.2266 1.898 54.6724 1.69743C55.1181 1.49686 55.6715 1.39658 56.3326 1.39658C56.7932 1.39658 57.2464 1.456 57.6921 1.57486C58.1378 1.69372 58.5204 1.86458 58.8398 2.08743L58.4721 2.97886C58.1452 2.77086 57.7961 2.61486 57.4246 2.51086C57.0532 2.39943 56.6892 2.34372 56.3326 2.34372C55.7012 2.34372 55.2258 2.45886 54.9064 2.68915C54.5944 2.91943 54.4384 3.21658 54.4384 3.58058C54.4384 3.848 54.5275 4.06715 54.7058 4.238C54.8841 4.40143 55.1032 4.53143 55.3632 4.628C55.6306 4.71715 55.9909 4.81372 56.4441 4.91772C57.0309 5.05886 57.5026 5.2 57.8592 5.34115C58.2158 5.48229 58.5204 5.69772 58.7729 5.98743C59.0329 6.27715 59.1629 6.66715 59.1629 7.15743C59.1629 7.56601 59.0515 7.94115 58.8286 8.28286C58.6058 8.61715 58.2678 8.88458 57.8146 9.08515C57.3615 9.27829 56.8044 9.37486 56.1432 9.37486Z" fill="#4156A6"/>
<path d="M60.7908 1.48572H61.9051V9.28572H60.7908V1.48572Z" fill="#4156A6"/>
<path d="M67.4718 9.37486C66.4318 9.37486 65.622 9.07772 65.0426 8.48343C64.4632 7.88915 64.1735 7.03486 64.1735 5.92058V1.48572H65.2878V5.87601C65.2878 7.54743 66.0195 8.38315 67.4829 8.38315C68.196 8.38315 68.742 8.17886 69.1209 7.77029C69.4998 7.35429 69.6892 6.72286 69.6892 5.87601V1.48572H70.77V5.92058C70.77 7.04229 70.4803 7.90029 69.9009 8.49458C69.3215 9.08143 68.5118 9.37486 67.4718 9.37486Z" fill="#4156A6"/>
<path d="M75.3276 9.37486C74.7408 9.37486 74.1725 9.28572 73.6228 9.10743C73.0805 8.92172 72.6534 8.68401 72.3414 8.39429L72.7537 7.52515C73.0508 7.79258 73.4296 8.01172 73.8902 8.18258C74.3582 8.34601 74.8374 8.42772 75.3276 8.42772C75.9739 8.42772 76.4568 8.32 76.7762 8.10458C77.0956 7.88172 77.2554 7.58829 77.2554 7.22429C77.2554 6.95686 77.1662 6.74143 76.9879 6.578C76.8171 6.40715 76.6016 6.27715 76.3416 6.188C76.0891 6.09886 75.7288 5.99858 75.2608 5.88715C74.6739 5.74601 74.1985 5.60486 73.8345 5.46372C73.4779 5.32258 73.1696 5.10715 72.9096 4.81743C72.6571 4.52029 72.5308 4.12286 72.5308 3.62515C72.5308 3.20915 72.6385 2.834 72.8539 2.49972C73.0768 2.16543 73.4111 1.898 73.8568 1.69743C74.3025 1.49686 74.8559 1.39658 75.5171 1.39658C75.9776 1.39658 76.4308 1.456 76.8765 1.57486C77.3222 1.69372 77.7048 1.86458 78.0242 2.08743L77.6565 2.97886C77.3296 2.77086 76.9805 2.61486 76.6091 2.51086C76.2376 2.39943 75.8736 2.34372 75.5171 2.34372C74.8856 2.34372 74.4102 2.45886 74.0908 2.68915C73.7788 2.91943 73.6228 3.21658 73.6228 3.58058C73.6228 3.848 73.7119 4.06715 73.8902 4.238C74.0685 4.40143 74.2876 4.53143 74.5476 4.628C74.8151 4.71715 75.1754 4.81372 75.6285 4.91772C76.2154 5.05886 76.6871 5.2 77.0436 5.34115C77.4002 5.48229 77.7048 5.69772 77.9574 5.98743C78.2174 6.27715 78.3474 6.66715 78.3474 7.15743C78.3474 7.56601 78.2359 7.94115 78.0131 8.28286C77.7902 8.61715 77.4522 8.88458 76.9991 9.08515C76.5459 9.27829 75.9888 9.37486 75.3276 9.37486Z" fill="#4156A6"/>
<path d="M38.5209 15.4143V23.2143H37.6072L32.9272 17.3977V23.2143H31.8129V15.4143H32.7266L37.4066 21.2309V15.4143H38.5209Z" fill="#4156A6"/>
<path d="M46.5161 22.2449V23.2143H40.8556V15.4143H46.3601V16.3837H41.9699V18.7794H45.881V19.7266H41.9699V22.2449H46.5161Z" fill="#4156A6"/>
<path d="M49.8693 16.3837H47.195V15.4143H53.6467V16.3837H50.9724V23.2143H49.8693V16.3837Z" fill="#4156A6"/>
<path d="M65.7935 15.4143L63.1861 23.2143H62.0161L59.8878 16.9854L57.7595 23.2143H56.5673L53.9598 15.4143H55.1075L57.2135 21.7546L59.4087 15.4143H60.4338L62.5844 21.788L64.735 15.4143H65.7935Z" fill="#4156A6"/>
<path d="M70.5907 23.3034C69.8033 23.3034 69.0939 23.1326 68.4624 22.7909C67.831 22.4417 67.3333 21.9626 66.9693 21.3534C66.6127 20.7443 66.4344 20.0646 66.4344 19.3143C66.4344 18.564 66.6127 17.8843 66.9693 17.2751C67.3333 16.666 67.831 16.1906 68.4624 15.8489C69.0939 15.4997 69.8033 15.3251 70.5907 15.3251C71.3707 15.3251 72.0764 15.4997 72.7079 15.8489C73.3393 16.1906 73.8333 16.666 74.1899 17.2751C74.5464 17.8769 74.7247 18.5566 74.7247 19.3143C74.7247 20.072 74.5464 20.7554 74.1899 21.3646C73.8333 21.9663 73.3393 22.4417 72.7079 22.7909C72.0764 23.1326 71.3707 23.3034 70.5907 23.3034ZM70.5907 22.3117C71.1627 22.3117 71.6753 22.1817 72.1284 21.9217C72.589 21.6617 72.9493 21.3051 73.2093 20.852C73.4767 20.3914 73.6104 19.8789 73.6104 19.3143C73.6104 18.7497 73.4767 18.2409 73.2093 17.7877C72.9493 17.3271 72.589 16.9669 72.1284 16.7069C71.6753 16.4469 71.1627 16.3169 70.5907 16.3169C70.0187 16.3169 69.4987 16.4469 69.0307 16.7069C68.5701 16.9669 68.2061 17.3271 67.9387 17.7877C67.6787 18.2409 67.5487 18.7497 67.5487 19.3143C67.5487 19.8789 67.6787 20.3914 67.9387 20.852C68.2061 21.3051 68.5701 21.6617 69.0307 21.9217C69.4987 22.1817 70.0187 22.3117 70.5907 22.3117Z" fill="#4156A6"/>
<path d="M81.6427 23.2143L79.9601 20.8186C79.7521 20.8334 79.5887 20.8409 79.4698 20.8409H77.5421V23.2143H76.4278V15.4143H79.4698C80.4801 15.4143 81.275 15.6557 81.8544 16.1386C82.4338 16.6214 82.7235 17.2863 82.7235 18.1331C82.7235 18.7349 82.575 19.2474 82.2778 19.6709C81.9807 20.0943 81.5573 20.4026 81.0075 20.5957L82.8573 23.2143H81.6427ZM79.4364 19.8937C80.1421 19.8937 80.6807 19.7414 81.0521 19.4369C81.4235 19.1323 81.6093 18.6977 81.6093 18.1331C81.6093 17.5686 81.4235 17.1377 81.0521 16.8406C80.6807 16.536 80.1421 16.3837 79.4364 16.3837H77.5421V19.8937H79.4364Z" fill="#4156A6"/>
<path d="M87.0644 19.7489L85.6381 21.1974V23.2143H84.5238V15.4143H85.6381V19.7711L89.8724 15.4143H91.1427L87.811 18.9243L91.3544 23.2143H90.0507L87.0644 19.7489Z" fill="#4156A6"/>
<path d="M13.4248 1.19099C6.70063 1.19099 1.22964 6.48845 1.22964 13C1.22964 19.5115 6.70063 24.809 13.4248 24.809C20.1493 24.809 25.62 19.5115 25.62 13C25.62 6.48845 20.1493 1.19099 13.4248 1.19099ZM13.4248 26C6.02254 26 0 20.1682 0 13C0 5.83183 6.02254 0 13.4248 0C20.8274 0 26.85 5.83183 26.85 13C26.85 20.1682 20.8274 26 13.4248 26Z" fill="#4156A6"/>
<path d="M13.3537 20.6575C8.99163 20.6575 5.44263 17.2223 5.44263 13C5.44263 8.7777 8.99163 5.34245 13.3537 5.34245C15.3214 5.34245 17.2081 6.0465 18.6651 7.32529C18.9174 7.54633 18.9366 7.92404 18.7077 8.16794C18.4793 8.41213 18.0894 8.43048 17.8371 8.20944C16.607 7.13023 15.0149 6.536 13.3537 6.536C9.67144 6.536 6.67569 9.43545 6.67569 13C6.67569 16.5645 9.67144 19.4643 13.3537 19.4643C15.0149 19.4643 16.6073 18.8697 17.8371 17.7908C18.0894 17.5698 18.479 17.5881 18.7077 17.832C18.9366 18.0762 18.9174 18.4536 18.6651 18.6752C17.2084 19.9535 15.3217 20.6575 13.3537 20.6575Z" fill="#4156A6"/>
<path d="M20.7028 10.1507C20.7028 10.457 20.4489 10.7063 20.1375 10.7063C19.8249 10.7063 19.5713 10.457 19.5713 10.1507C19.5713 9.84438 19.8249 9.59507 20.1375 9.59507C20.4489 9.59507 20.7028 9.84438 20.7028 10.1507ZM20.1375 8.9041C19.4375 8.9041 18.8674 9.46348 18.8674 10.1507C18.8674 10.8379 19.4375 11.3973 20.1375 11.3973C20.8375 11.3973 21.4073 10.8379 21.4073 10.1507C21.4073 9.46348 20.8375 8.9041 20.1375 8.9041Z" fill="#4156A6"/>
</svg>
