<svg width="105" height="31" viewBox="0 0 105 31" fill="none" xmlns="http://www.w3.org/2000/svg">
<path fill-rule="evenodd" clip-rule="evenodd" d="M62.3824 0H56.8235V12.3529H59.2941V8.64706H62.3824C64.7702 8.64706 66.7059 6.71135 66.7059 4.32353C66.7059 1.93571 64.7702 0 62.3824 0ZM62.3824 6.17647H59.2941V2.47059H62.3824C62.6257 2.47059 62.8666 2.51852 63.0914 2.61164C63.3163 2.70475 63.5205 2.84124 63.6926 3.0133C63.8646 3.18536 64.0011 3.38963 64.0942 3.61444C64.1874 3.83925 64.2353 4.0802 64.2353 4.32353C64.2353 4.56686 64.1874 4.80781 64.0942 5.03262C64.0011 5.25743 63.8646 5.46169 63.6926 5.63376C63.5205 5.80582 63.3163 5.9423 63.0914 6.03542C62.8666 6.12854 62.6257 6.17647 62.3824 6.17647Z" fill="#232368"/>
<path d="M40.7647 0H37.6765L42 7.41176V12.3529H44.4706V7.41176L48.7941 0H45.7059L43.2353 4.94118L40.7647 0Z" fill="#232368"/>
<path d="M9.08559 8.46794C8.40679 9.32801 7.35741 9.88235 6.17647 9.88235C4.1299 9.88235 2.47059 8.22304 2.47059 6.17647C2.47059 4.12959 4.1299 2.47059 6.17647 2.47059C7.35741 2.47059 8.40679 3.02524 9.08559 3.885L10.8382 2.13243C9.70571 0.828264 8.0396 0 6.17647 0C2.76551 0 0 2.76521 0 6.17647C0 9.58743 2.76551 12.3529 6.17647 12.3529C6.29292 12.3529 6.40859 12.3497 6.52342 12.3433C8.24578 12.2475 9.77648 11.4429 10.8382 10.2202L9.08559 8.46794Z" fill="#232368"/>
<path fill-rule="evenodd" clip-rule="evenodd" d="M30.2647 12.3529L27.2805 8.17518C28.6838 7.46056 29.6471 6.006 29.6471 4.32353C29.6471 1.93571 27.7114 0 25.3235 0H19.7647V12.3529H22.2353V8.64706H24.5295L27.1765 12.3529H30.2647ZM22.2353 2.47059H25.3235C25.5669 2.47059 25.8078 2.51852 26.0326 2.61164C26.2574 2.70475 26.4617 2.84124 26.6338 3.0133C26.8058 3.18536 26.9423 3.38963 27.0354 3.61444C27.1285 3.83925 27.1765 4.0802 27.1765 4.32353C27.1765 4.56686 27.1285 4.80781 27.0354 5.03262C26.9423 5.25743 26.8058 5.46169 26.6338 5.63376C26.4617 5.80582 26.2574 5.9423 26.0326 6.03542C25.8078 6.12854 25.5669 6.17647 25.3235 6.17647H22.2353V2.47059Z" fill="#232368"/>
<path d="M85.2353 0H75.3529V2.47059H79.0588V12.3529H81.5294V2.47059H85.2353V0Z" fill="#232368"/>
<path fill-rule="evenodd" clip-rule="evenodd" d="M98.8235 0C95.4123 0 92.6471 2.76521 92.6471 6.17647C92.6471 9.58774 95.4123 12.3529 98.8235 12.3529C102.235 12.3529 105 9.58774 105 6.17647C105 2.76521 102.235 0 98.8235 0ZM98.8235 9.88235C96.7769 9.88235 95.1176 8.22304 95.1176 6.17647C95.1176 4.1299 96.7769 2.47059 98.8235 2.47059C100.87 2.47059 102.529 4.1299 102.529 6.17647C102.529 8.22304 100.87 9.88235 98.8235 9.88235Z" fill="#232368"/>
<path fill-rule="evenodd" clip-rule="evenodd" d="M43.5442 17.9118H37.9853V30.2647H40.4559V26.5588H43.5442C45.932 26.5588 47.8677 24.6231 47.8677 22.2353C47.8677 19.8475 45.932 17.9118 43.5442 17.9118ZM43.5442 24.0882H40.4559V20.3824H43.5442C43.7875 20.3824 44.0284 20.4303 44.2532 20.5234C44.4781 20.6165 44.6823 20.753 44.8544 20.9251C45.0264 21.0971 45.1629 21.3014 45.2561 21.5262C45.3492 21.751 45.3971 21.992 45.3971 22.2353C45.3971 22.4786 45.3492 22.7196 45.2561 22.9444C45.1629 23.1692 45.0264 23.3735 44.8544 23.5455C44.6823 23.7176 44.4781 23.8541 44.2532 23.9472C44.0284 24.0403 43.7875 24.0882 43.5442 24.0882Z" fill="#232368"/>
<path fill-rule="evenodd" clip-rule="evenodd" d="M62.0736 17.9118H56.5147V30.2647H58.9853V26.5588H62.0736C64.4614 26.5588 66.3971 24.6231 66.3971 22.2353C66.3971 19.8475 64.4614 17.9118 62.0736 17.9118ZM62.0736 24.0882H58.9853V20.3824H62.0736C62.3169 20.3824 62.5578 20.4303 62.7827 20.5234C63.0075 20.6165 63.2117 20.753 63.3838 20.9251C63.5558 21.0971 63.6924 21.3014 63.7855 21.5262C63.8786 21.751 63.9265 21.992 63.9265 22.2353C63.9265 22.4786 63.8786 22.7196 63.7855 22.9444C63.6924 23.1692 63.5558 23.3735 63.3838 23.5455C63.2117 23.7176 63.0075 23.8541 62.7827 23.9472C62.5578 24.0403 62.3169 24.0882 62.0736 24.0882Z" fill="#232368"/>
<path fill-rule="evenodd" clip-rule="evenodd" d="M104.074 30.2647L101.089 26.087C102.493 25.3723 103.456 23.9178 103.456 22.2353C103.456 19.8475 101.52 17.9118 99.1324 17.9118H93.5736V30.2647H96.0442V26.5588H98.3384L100.985 30.2647H104.074ZM96.0442 20.3824H99.1324C99.3757 20.3824 99.6167 20.4303 99.8415 20.5234C100.066 20.6165 100.271 20.753 100.443 20.9251C100.615 21.0971 100.751 21.3014 100.844 21.5262C100.937 21.751 100.985 21.992 100.985 22.2353C100.985 22.4786 100.937 22.7196 100.844 22.9444C100.751 23.1692 100.615 23.3735 100.443 23.5455C100.271 23.7176 100.066 23.8541 99.8415 23.9472C99.6167 24.0403 99.3757 24.0882 99.1324 24.0882H96.0442V20.3824Z" fill="#232368"/>
<path d="M83.6912 25.3235H77.5147V27.7941H84.6177V30.2647H75.0442V17.9118H84.3089V20.3824H77.5147V22.853H83.6912V25.3235Z" fill="#232368"/>
<path d="M3.3971 22.853H8.33828V17.9118H10.8089V30.2647H8.33828V25.3235H3.3971V30.2647H0.926514V17.9118H3.3971V22.853Z" fill="#232368"/>
<path fill-rule="evenodd" clip-rule="evenodd" d="M24.3969 24.7034C22.3504 24.7034 20.691 23.0441 20.691 20.9975C20.691 18.951 22.3504 17.2916 24.3969 17.2916C26.4435 17.2916 28.1028 18.951 28.1028 20.9975C28.1028 23.0441 26.4435 24.7034 24.3969 24.7034ZM24.3969 14.8211C20.9857 14.8211 18.2205 17.5863 18.2205 20.9975C18.2205 24.4088 20.9857 27.174 24.3969 27.174C27.8082 27.174 30.5734 24.4088 30.5734 20.9975C30.5734 17.5863 27.8082 14.8211 24.3969 14.8211Z" fill="#00B2C8"/>
</svg>
