<svg width="105" height="40" viewBox="0 0 105 40" fill="none" xmlns="http://www.w3.org/2000/svg">
<path d="M40.362 17.0406H35.448C34.7963 17.0406 34.1714 16.7818 33.7106 16.321C33.2498 15.8602 32.991 15.2353 32.991 14.5836C32.991 13.932 33.2498 13.307 33.7106 12.8463C34.1714 12.3855 34.7963 12.1266 35.448 12.1266H44.52V17.0406H40.362Z" fill="#313131"/>
<path d="M50.2747 17.0406H46.1167V12.1266H50.2747C50.5987 12.1218 50.9204 12.1821 51.2206 12.3038C51.5209 12.4256 51.7937 12.6064 52.0228 12.8355C52.2519 13.0647 52.4327 13.3374 52.5545 13.6377C52.6763 13.938 52.7365 14.2596 52.7317 14.5836C52.7273 15.2339 52.4671 15.8563 52.0072 16.3161C51.5474 16.776 50.925 17.0362 50.2747 17.0406Z" fill="#04C5CE"/>
<path d="M50.2742 39.5527H45.5912L41.4332 32.6227L37.3802 39.5527H28.7281L27.2581 35.9407H20.6221L19.2361 39.5527H15.0781L22.4491 22.5007H25.6621L33.1172 39.5527L39.1022 30.7117L33.4322 22.5847H38.1152L41.7272 28.5697L45.2552 22.5847H49.8542L44.3102 30.5857L50.2742 39.5527ZM23.9191 27.3937L21.7771 32.7067H25.9351L23.9191 27.3937ZM12.8101 37.3057C11.9222 38.0795 10.8647 38.6334 9.72305 38.9227C8.56804 39.3637 7.35004 39.4687 6.11103 39.4687H5.79603V35.9407C6.62026 35.9367 7.44251 35.8594 8.25304 35.7097C8.9186 35.4998 9.55937 35.2181 10.164 34.8697C10.7101 34.5547 11.1511 33.8827 11.4661 33.2527C11.8348 32.4867 12.0217 31.6458 12.0121 30.7957C12.0121 29.9557 11.9281 29.1787 11.4661 28.6537C11.1511 28.0237 10.7101 27.5827 10.164 27.0367C9.61805 26.5957 9.00904 26.4067 8.33704 26.0497C7.61538 25.8321 6.86474 25.7258 6.11103 25.7347H5.79603V22.2067C7.18203 22.2067 8.48404 22.2907 9.63905 22.6477C10.791 22.9368 11.8801 23.435 12.8521 24.1177C13.8391 24.7477 14.4691 25.7347 14.9941 26.8057C15.573 28.0325 15.8604 29.3764 15.8341 30.7327C15.8341 32.1187 15.6031 33.4207 15.0781 34.3447C14.4271 35.7097 13.7971 36.6967 12.8101 37.3057ZM3.73802 39.5527H0V22.5007H3.75902V39.5527H3.73802Z" fill="#04C5D2"/>
<path d="M53.1926 39.5317V27.3516H55.0406V29.1996C55.5236 28.3386 55.9436 27.7716 56.3426 27.4986C56.7302 27.2263 57.192 27.0797 57.6656 27.0786C58.4215 27.1004 59.1562 27.3332 59.7867 27.7506L59.0727 29.6616C58.6174 29.3816 58.0951 29.2293 57.5606 29.2206C57.1215 29.2143 56.6929 29.3547 56.3426 29.6196C55.976 29.9114 55.7053 30.3064 55.5656 30.7537C55.3308 31.5367 55.2175 32.3512 55.2296 33.1687V39.5317H53.1926Z" fill="#313131"/>
<path d="M60.2695 33.4627C60.2695 31.2157 60.8995 29.5357 62.1595 28.4646C63.2246 27.5612 64.5855 27.0827 65.9816 27.1206C67.6616 27.1206 69.0266 27.6666 70.0766 28.7586C71.1476 29.8507 71.6726 31.3627 71.6726 33.2947C71.6726 34.8697 71.4416 36.0877 70.9586 36.9907C70.4944 37.8781 69.7784 38.6087 68.9006 39.0907C68.0016 39.5884 66.988 39.8418 65.9606 39.8257C64.2596 39.8257 62.8735 39.2797 61.8235 38.1877C60.7735 37.0957 60.2695 35.5207 60.2695 33.4627ZM62.3905 33.4627C62.3905 35.0167 62.7265 36.1927 63.4195 36.9697C63.7324 37.3423 64.1252 37.6396 64.5687 37.8396C65.0123 38.0396 65.4952 38.137 65.9816 38.1247C66.4691 38.1308 66.9519 38.0285 67.395 37.8251C67.8381 37.6217 68.2304 37.3224 68.5436 36.9487C69.2156 36.1717 69.5726 34.9747 69.5726 33.3787C69.5726 31.8667 69.2366 30.7327 68.5436 29.9557C68.2249 29.5928 67.8324 29.302 67.3924 29.1028C66.9524 28.9037 66.475 28.8006 65.9921 28.8006C65.5091 28.8006 65.0317 28.9037 64.5917 29.1028C64.1517 29.302 63.7592 29.5928 63.4405 29.9557C62.7265 30.7327 62.3905 31.8877 62.3905 33.4627Z" fill="#313131"/>
<path d="M75.9987 39.5317H74.0876V22.7316H76.1457V28.7166C76.5314 28.1973 77.0357 27.7777 77.6165 27.4927C78.1974 27.2078 78.8379 27.0658 79.4847 27.0786C80.2174 27.0716 80.9423 27.2295 81.6057 27.5406C82.2546 27.8264 82.824 28.2661 83.2647 28.8216C83.7277 29.4067 84.0702 30.0776 84.2727 30.7957C84.5219 31.5976 84.6423 32.434 84.6297 33.2737C84.6297 35.3527 84.1047 36.9697 83.0757 38.1037C82.6175 38.641 82.0474 39.0716 81.4054 39.3654C80.7633 39.6592 80.0648 39.8092 79.3587 39.8047C78.6873 39.8203 78.0233 39.6622 77.431 39.3458C76.8386 39.0294 76.338 38.5654 75.9777 37.9987V39.5317H75.9987ZM75.9567 33.3577C75.9567 34.8067 76.1457 35.8777 76.5447 36.5287C77.1957 37.5997 78.0777 38.1247 79.1907 38.1247C80.0937 38.1247 80.8707 37.7257 81.5217 36.9487C82.1727 36.1717 82.5087 34.9957 82.5087 33.4417C82.5087 31.8457 82.1937 30.6697 81.5637 29.9137C81.2956 29.5608 80.9494 29.2747 80.5523 29.078C80.1551 28.8813 79.7179 28.7791 79.2747 28.7796C78.3717 28.7796 77.5947 29.1786 76.9437 29.9557C76.2927 30.7327 75.9567 31.8877 75.9567 33.3577Z" fill="#313131"/>
<path d="M86.3726 33.4627C86.3726 31.2157 87.0026 29.5357 88.2626 28.4646C89.3276 27.5612 90.6885 27.0827 92.0846 27.1206C93.7646 27.1206 95.1296 27.6666 96.1796 28.7586C97.2506 29.8507 97.7756 31.3627 97.7756 33.2947C97.7756 34.8697 97.5446 36.0877 97.0616 36.9907C96.5974 37.8781 95.8815 38.6087 95.0036 39.0907C94.1046 39.5884 93.091 39.8418 92.0636 39.8257C90.3626 39.8257 88.9766 39.2797 87.9266 38.1877C86.8766 37.0957 86.3726 35.5207 86.3726 33.4627ZM88.4936 33.4627C88.4936 35.0167 88.8296 36.1927 89.5226 36.9697C89.8354 37.3423 90.2282 37.6396 90.6718 37.8396C91.1153 38.0396 91.5982 38.137 92.0846 38.1247C92.5721 38.1308 93.0549 38.0285 93.498 37.8251C93.9411 37.6217 94.3334 37.3224 94.6466 36.9487C95.3186 36.1717 95.6756 34.9747 95.6756 33.3787C95.6756 31.8667 95.3396 30.7327 94.6466 29.9557C94.3279 29.5928 93.9355 29.302 93.4955 29.1028C93.0555 28.9037 92.5781 28.8006 92.0951 28.8006C91.6121 28.8006 91.1347 28.9037 90.6947 29.1028C90.2547 29.302 89.8623 29.5928 89.5436 29.9557C88.8296 30.7327 88.4936 31.8877 88.4936 33.4627Z" fill="#313131"/>
<path d="M104.706 37.7047L105 39.5317C104.49 39.6493 103.969 39.7127 103.446 39.7207C102.844 39.7495 102.245 39.6268 101.703 39.3637C101.32 39.1616 101.016 38.836 100.842 38.4397C100.674 38.0617 100.59 37.2427 100.59 36.0037V29.0106H99.0779V27.4146H100.59V24.3906L102.648 23.1516V27.3936H104.727V28.9896H102.648V36.1087C102.628 36.4898 102.664 36.8717 102.753 37.2427C102.824 37.412 102.949 37.5526 103.11 37.6417C103.33 37.7556 103.577 37.8065 103.824 37.7887C104.013 37.7677 104.328 37.7467 104.706 37.7047Z" fill="#313131"/>
<path d="M60.7326 11.5386V6.01558C61.2514 5.82736 61.7003 5.48518 62.0193 5.03483C62.3383 4.58447 62.5122 4.04743 62.5176 3.49557C62.5198 3.00259 62.3863 2.51851 62.1318 2.09628C61.8774 1.67405 61.5117 1.32994 61.0748 1.10157C60.6379 0.873207 60.1466 0.76939 59.6547 0.801477C59.1627 0.833563 58.6891 1.00032 58.2856 1.2835C57.882 1.56668 57.5641 1.95538 57.3667 2.40709C57.1692 2.8588 57.0998 3.35611 57.1659 3.84463C57.2321 4.33315 57.4314 4.79406 57.7419 5.17695C58.0524 5.55984 58.4623 5.84996 58.9266 6.01558V8.89259C56.9746 6.51057 54.5159 4.59401 51.7294 3.28253C48.943 1.97106 45.8991 1.29771 42.8195 1.31156C32.6765 1.31156 24.2344 8.45159 22.7224 17.7546H25.8934C27.3844 10.1946 34.3985 4.44057 42.8195 4.44057C52.3116 4.44057 60.0396 11.7486 60.0396 20.7366C60.036 21.3191 60.001 21.901 59.9346 22.4797H63.0636C63.1235 21.9006 63.1516 21.3188 63.1476 20.7366C63.1427 17.5145 62.3112 14.3475 60.7326 11.5386Z" fill="#04C5CE"/>
</svg>
