<svg width="124" height="25" viewBox="0 0 124 25" fill="none" xmlns="http://www.w3.org/2000/svg">
<path d="M5.07151 20.9375C4.63751 20.55 4.41431 19.9625 4.41431 19.175C4.41431 18.9125 4.43911 18.65 4.47631 18.3875L5.88991 9.34999H8.70471L7.34071 18C7.32831 18.0625 7.32831 18.15 7.32831 18.2625C7.32831 18.7375 7.61351 18.9625 8.17151 18.9625H11.7923L11.3831 21.5H6.91911C6.12551 21.525 5.50551 21.325 5.07151 20.9375Z" fill="black"/>
<path d="M14.5946 9.3625H17.4094L15.4874 21.525H12.6726L14.5946 9.3625Z" fill="black"/>
<path d="M18.6372 9.3625H21.5512L22.63 18.4375L26.6104 9.3625H29.4996L23.8948 21.525H20.3856L18.6372 9.3625Z" fill="black"/>
<path d="M29.5987 21.1375C29.0531 20.8125 28.7803 20.2375 28.7803 19.3875C28.7803 19.1875 28.7927 18.9875 28.8299 18.775L29.8591 12.3C30.1567 10.3375 31.2851 9.34999 33.2443 9.34999C34.7323 9.36249 36.3691 9.43749 38.1671 9.57499L37.7951 11.9625H33.6659C33.3187 11.9625 33.0583 12.05 32.8971 12.2125C32.7235 12.375 32.6119 12.6375 32.5623 13L32.3887 14.15L36.6171 14.3L36.2699 16.55L31.9795 16.7L31.7811 18C31.7687 18.05 31.7687 18.1375 31.7687 18.25C31.7687 18.725 32.0539 18.975 32.6243 18.975H36.7039L36.3319 21.35C34.4223 21.5375 32.8103 21.625 31.4835 21.625C30.7643 21.625 30.1443 21.4625 29.5987 21.1375Z" fill="black"/>
<path d="M82.1376 9.3625L76.5452 21.525H79.422L80.3768 19.3125H84.2332L84.4936 21.525H87.4076L85.6468 9.3625H82.1376ZM81.4432 16.7625L83.4892 11.775L83.9728 16.7625H81.4432Z" fill="black"/>
<path d="M95.1824 9.3625H90.5324L88.6104 21.525H93.1984C94.364 21.525 95.356 21.3375 96.1496 20.9625C96.9432 20.5875 97.588 19.9875 98.0964 19.15C98.5924 18.325 98.952 17.225 99.1752 15.875C99.2992 15.15 99.3488 14.4 99.3488 13.625C99.3488 12.2375 99.0388 11.175 98.4312 10.45C97.8112 9.725 96.7324 9.3625 95.1824 9.3625ZM96.348 15.3875C96.1496 16.625 95.8272 17.525 95.3932 18.1125C94.9468 18.6875 94.3144 18.9875 93.496 18.9875H91.8344L92.938 11.9H94.488C95.2196 11.9 95.7528 12.0375 96.0628 12.3125C96.3728 12.5875 96.534 13.0625 96.534 13.7375C96.534 14.0625 96.472 14.6125 96.348 15.3875Z" fill="black"/>
<path d="M104.346 12.225C104.52 12.0625 104.768 11.975 105.115 11.975H109.244L109.616 9.58749C107.818 9.44999 106.169 9.375 104.693 9.3625C102.746 9.3625 101.618 10.35 101.308 12.3125L100.279 18.7875C100.242 19 100.229 19.2 100.229 19.4C100.229 20.2375 100.502 20.825 101.048 21.15C101.593 21.475 102.213 21.6375 102.932 21.6375C104.259 21.6375 105.871 21.55 107.781 21.3625L108.153 18.9875H104.073C103.503 18.9875 103.218 18.75 103.218 18.2625C103.218 18.15 103.218 18.075 103.23 18.0125L103.428 16.7125L107.719 16.5625L108.066 14.3125L103.838 14.1625L104.011 13.0125C104.061 12.65 104.172 12.3875 104.346 12.225Z" fill="black"/>
<path d="M118.718 10.1C118.135 9.59999 117.292 9.34999 116.188 9.34999H111.526L109.604 21.5125H112.418L113.1 17.1625H114.663L115.766 21.5125H118.631L117.23 16.7125C117.763 16.4625 118.234 16.1125 118.656 15.6625C119.077 15.2125 119.35 14.5 119.499 13.5375C119.561 13.15 119.598 12.7875 119.598 12.475C119.586 11.3875 119.3 10.6 118.718 10.1ZM116.684 13.3625C116.597 13.9375 116.436 14.35 116.213 14.5875C115.99 14.825 115.618 14.9375 115.109 14.9375H113.46L113.931 11.9H115.642C116.362 11.9 116.721 12.225 116.721 12.8625C116.709 13.075 116.696 13.2375 116.684 13.3625Z" fill="black"/>
<path d="M76.6815 13.5377C76.7435 13.1502 76.7807 12.7877 76.7807 12.4752C76.7807 11.3877 76.4955 10.6002 75.9127 10.1127C75.3299 9.61272 74.4867 9.36272 73.3831 9.36272H72.3539H68.7207H58.1807L57.7715 11.9002H60.9087L59.3959 21.5252H62.2107L63.7235 11.9002H68.3115H71.1139H71.9447H72.8251C73.5443 11.9002 73.9039 12.2252 73.9039 12.8627C73.9039 13.0752 73.8915 13.2377 73.8667 13.3502C73.7799 13.9252 73.6187 14.3377 73.3955 14.5752C73.1723 14.8127 72.8003 14.9252 72.2919 14.9252H70.6551L71.1015 12.0502L68.2123 12.5752L66.7987 21.5127H69.6135L70.2955 17.1627H71.8579L72.9615 21.5127H75.8259L74.4247 16.7127C74.9579 16.4627 75.4291 16.1127 75.8507 15.6627C76.2599 15.2252 76.5327 14.5127 76.6815 13.5377Z" fill="black"/>
<path d="M43.4368 6.43749L41.9736 12.6125L42.2464 13.575L43.474 15.75L44.3668 17.2125L44.7512 17.8625L47.132 18.9125L53.7164 14.925L54.5968 6.97499L53.0716 4.78749L43.4368 6.43749Z" fill="white"/>
<path d="M55.8866 6.71249C54.9442 5.03749 51.7946 3.37499 44.8754 3.37499C40.771 3.37499 37.4974 5.12499 39.6054 8.87499C40.1138 9.77499 41.1554 11.625 42.2466 13.575V13.05H42.6806V12.1H43.0154V13.05H43.4494V15.75C44.3794 17.4125 45.2226 18.9125 45.669 19.7C49.8726 27.1375 58.2302 10.8875 55.8866 6.71249ZM45.5202 16.8125H45.0862V17.7625H44.7514V16.8125H44.3174V12.1375H44.7514V11.1875H45.0862V12.1375H45.5202V16.8125ZM47.5786 12.9375H47.1446V13.8875H46.8098V12.9375H46.3758V10.35H46.8098V9.39999H47.1446V10.35H47.5786V12.9375ZM49.6246 14.1625H49.1906V15.1125H48.8558V14.1625H48.4218V8.21249H48.8558V7.26249H49.1906V8.21249H49.6246V14.1625ZM51.683 14.6875H51.249V15.6375H50.9142V14.6875H50.4678V10.8125H50.9018V9.86249H51.2366V10.8125H51.6706V14.6875H51.683ZM53.729 11.525H53.295V12.475H52.9478V11.525H52.5138V6.42499H52.9478V5.47499H53.2826V6.42499H53.7166V11.525H53.729Z" fill="url(#paint0_linear)"/>
<defs>
<linearGradient id="paint0_linear" x1="46.4209" y1="2.7974" x2="50.9529" y2="20.4059" gradientUnits="userSpaceOnUse">
<stop stop-color="#FC6E4E"/>
<stop offset="0.2512" stop-color="#FC694F"/>
<stop offset="0.5624" stop-color="#FD5953"/>
<stop offset="0.904" stop-color="#FE405A"/>
<stop offset="1" stop-color="#FE385C"/>
</linearGradient>
</defs>
</svg>
