<svg width="44" height="44" viewBox="0 0 44 44" fill="none" xmlns="http://www.w3.org/2000/svg">
<path d="M21.9998 2.01551C10.9806 2.01551 2.01506 10.9805 2.01506 22C2.01506 33.0195 10.9806 41.9845 21.9998 41.9845C33.0194 41.9845 41.9845 33.0195 41.9845 22C41.9845 10.9805 33.0194 2.01551 21.9998 2.01551ZM21.9998 44C9.86936 44 0 34.1307 0 22C0 9.86925 9.86936 0 21.9998 0C34.1306 0 44 9.86925 44 22C44 34.1307 34.1306 44 21.9998 44Z" fill="#4156A6"/>
<path d="M21.8838 34.9588C14.7355 34.9588 8.91962 29.1453 8.91962 21.9999C8.91962 14.8545 14.7355 9.04102 21.8838 9.04102C25.1084 9.04102 28.2001 10.2325 30.5878 12.3966C31.0012 12.7707 31.0327 13.4099 30.6576 13.8226C30.2834 14.2359 29.6444 14.2669 29.231 13.8928C27.2151 12.0665 24.6061 11.0609 21.8838 11.0609C15.8495 11.0609 10.9403 15.9676 10.9403 21.9999C10.9403 28.0322 15.8495 32.9395 21.8838 32.9395C24.6061 32.9395 27.2156 31.9334 29.231 30.1075C29.6444 29.7334 30.2829 29.7645 30.6576 30.1772C31.0327 30.5905 31.0012 31.2292 30.5878 31.6042C28.2006 33.7674 25.1089 34.9588 21.8838 34.9588Z" fill="#4156A6"/>
<path d="M33.9266 17.1782C33.9266 17.6965 33.5104 18.1185 33.0002 18.1185C32.4879 18.1185 32.0723 17.6965 32.0723 17.1782C32.0723 16.6599 32.4879 16.2379 33.0002 16.2379C33.5104 16.2379 33.9266 16.6599 33.9266 17.1782ZM33.0002 15.0686C31.8531 15.0686 30.9189 16.0153 30.9189 17.1782C30.9189 18.3411 31.8531 19.2878 33.0002 19.2878C34.1473 19.2878 35.081 18.3411 35.081 17.1782C35.081 16.0153 34.1473 15.0686 33.0002 15.0686Z" fill="#4156A6"/>
</svg>
