<svg width="127" height="31" viewBox="0 0 127 31" fill="none" xmlns="http://www.w3.org/2000/svg">
<path d="M9.58209 0.418936L26.9942 10.4003V20.5795L0.370605 5.31064L8.91294 0.418936C9.12438 0.297712 9.38489 0.297712 9.59633 0.418936" fill="#3CA9E5"/>
<path d="M26.9942 0.221008L18.1244 5.31064L26.9942 10.4003V0.221008Z" fill="#2853C3"/>
<path d="M26.9943 0.221008L35.5366 5.11271C35.7499 5.23501 35.8805 5.46188 35.8783 5.7065L35.8783 25.6692L26.9943 20.5795V0.221008Z" fill="#1A4199"/>
<path d="M35.8782 25.6692L27.3359 30.5609C27.1237 30.6792 26.8647 30.6792 26.6525 30.5609L9.24036 20.5795V10.3861L35.8782 25.6692Z" fill="#2853C3"/>
<path d="M0.370605 5.31064L0.370633 25.2733C0.368428 25.5179 0.498976 25.7448 0.712327 25.8671L9.25467 30.7588V10.3861L0.370605 5.31064Z" fill="#60BEFF"/>
<path d="M9.25464 30.7588L18.1244 25.6692L9.25464 20.5795V30.7588Z" fill="#3CA9E5"/>
<path d="M87.2177 15.5182C86.8212 10.8957 82.9484 7.33155 78.2767 7.28993H77.8496C76.7702 7.32912 75.7078 7.5689 74.7174 7.99683L74.5038 8.08165H74.4042C71.193 9.55575 69.1567 12.769 69.2076 16.2816C69.2076 16.2816 69.2076 16.3947 69.2076 16.4513C69.4557 21.3782 73.5228 25.2621 78.4903 25.3157H83.6441C83.9194 25.3157 84.1424 25.0942 84.1424 24.8209V21.9792C84.1424 21.7059 83.9194 21.4844 83.6441 21.4844H78.2767C76.0491 21.3938 74.1156 19.9312 73.4361 17.8226H86.6055C86.7716 17.8189 86.9295 17.7498 87.0443 17.6305C87.1591 17.5112 87.2215 17.3514 87.2177 17.1864V15.5889C87.223 15.5561 87.223 15.5227 87.2177 15.4899V15.5182ZM82.9465 14.5427H73.4503C73.9063 13.2644 74.8532 12.2174 76.0842 11.6303L76.2835 11.5313C77.5705 11.0194 79.0128 11.055 80.2726 11.6297C81.5324 12.2045 82.4992 13.2679 82.9465 14.5709" fill="#2853C3"/>
<path d="M57.8036 7.28994C56.0961 7.35343 54.444 7.90848 53.0484 8.88752V7.86959C53.0484 7.69782 52.9081 7.55856 52.7351 7.55856H49.3894C49.2164 7.55856 49.0762 7.69782 49.0762 7.86959V16.0271C49.0762 16.1685 49.0762 16.2958 49.0762 16.4371V24.9199C49.0762 25.1931 49.2993 25.4147 49.5745 25.4147H52.5216C52.7968 25.4147 53.0199 25.1931 53.0199 24.9199V16.2675C53.0214 14.8387 53.6293 13.4768 54.6943 12.5161C55.7593 11.5554 57.1828 11.085 58.6151 11.2203C61.2682 11.5244 63.2602 13.7712 63.228 16.423V24.9057C63.228 25.179 63.4511 25.4005 63.7263 25.4005H66.7161C66.8483 25.4005 66.975 25.3484 67.0685 25.2556C67.1619 25.1628 67.2144 25.037 67.2144 24.9057V16.2675C67.2084 13.8239 66.2028 11.4877 64.4282 9.79484C62.6537 8.10199 60.2626 7.19787 57.8036 7.28994Z" fill="#2853C3"/>
<path d="M104.53 7.37477C104.436 7.28131 104.283 7.28131 104.188 7.37477L97.8814 13.652L91.6597 7.47374C91.5652 7.38027 91.4125 7.38027 91.318 7.47374L88.7838 9.99028C88.6896 10.0841 88.6896 10.2358 88.7838 10.3296L95.0054 16.5078L88.6414 22.7709C88.5473 22.8647 88.5473 23.0164 88.6414 23.1102L91.1187 25.5702C91.2408 25.6906 91.4379 25.6906 91.56 25.5702L97.8244 19.3495L104.046 25.5278C104.141 25.6213 104.293 25.6213 104.388 25.5278L106.922 23.0112C107.016 22.9175 107.016 22.7657 106.922 22.6719L100.7 16.4937L107.007 10.2306C107.102 10.1368 107.102 9.98511 107.007 9.89131L104.53 7.37477Z" fill="#2853C3"/>
<path d="M117.116 7.21925C113.356 7.19634 109.954 9.42763 108.499 12.8702C107.045 16.3129 107.825 20.2869 110.475 22.9349C113.125 25.5829 117.122 26.382 120.598 24.9586C124.074 23.5353 126.342 20.1706 126.342 16.4371C126.342 11.3682 122.22 7.25034 117.116 7.21925ZM117.116 21.7671C114.934 21.79 112.954 20.5026 112.103 18.5076C111.253 16.5126 111.699 14.2047 113.233 12.6646C114.768 11.1244 117.087 10.6568 119.105 11.4805C121.123 12.3042 122.44 14.2564 122.441 16.423C122.441 19.3525 120.066 21.7361 117.116 21.7671Z" fill="#2853C3"/>
</svg>
