<svg width="64" height="64" viewBox="0 0 64 64" fill="none" xmlns="http://www.w3.org/2000/svg">
<circle cx="32" cy="32" r="32" fill="#EEEEEE"/>
<path d="M18 21.3333V23.3333C18 28.8667 20.9467 33.7067 25.3333 36.4V42.6667H45.3333V40C45.3333 36.4533 38.2267 34.6667 34.6667 34.6667C34.6667 34.6667 34.44 34.6667 34.3333 34.6667C28 34.6667 22.6667 29.3333 22.6667 23.3333V21.3333H18ZM34.6667 21.3333C33.2522 21.3333 31.8956 21.8952 30.8954 22.8954C29.8952 23.8956 29.3333 25.2522 29.3333 26.6667C29.3333 28.0812 29.8952 29.4377 30.8954 30.4379C31.8956 31.4381 33.2522 32 34.6667 32C36.0812 32 37.4377 31.4381 38.4379 30.4379C39.4381 29.4377 40 28.0812 40 26.6667C40 25.2522 39.4381 23.8956 38.4379 22.8954C37.4377 21.8952 36.0812 21.3333 34.6667 21.3333Z" fill="#263238"/>
</svg>
