<?xml version="1.0" standalone="no"?>
<!DOCTYPE svg PUBLIC "-//W3C//DTD SVG 20010904//EN"
 "http://www.w3.org/TR/2001/REC-SVG-20010904/DTD/svg10.dtd">
<svg version="1.0" xmlns="http://www.w3.org/2000/svg"
 width="700.000000pt" height="700.000000pt" viewBox="0 0 700.000000 700.000000"
 preserveAspectRatio="xMidYMid meet">
<metadata>
Created by potrace 1.11, written by Peter Selinger 2001-2013
</metadata>
<g transform="translate(0.000000,700.000000) scale(0.100000,-0.100000)"
fill="#000000" stroke="none">
<path d="M0 3500 l0 -3500 3500 0 3500 0 0 3500 0 3500 -3500 0 -3500 0 0
-3500z m1752 933 c3 -1161 5 -1263 21 -1318 69 -237 258 -418 493 -471 162
-36 362 1 498 91 149 99 258 264 285 435 7 43 11 480 11 1293 l0 1227 660 0
660 0 0 -1238 c0 -800 -4 -1277 -11 -1348 -35 -365 -175 -718 -403 -1019 -78
-104 -258 -284 -364 -364 -333 -252 -710 -390 -1117 -408 -782 -34 -1529 424
-1862 1142 -66 141 -96 225 -128 354 -60 240 -57 174 -62 1570 -2 706 -2 1290
1 1297 5 12 112 14 660 14 l655 0 3 -1257z m4171 1223 c163 -48 284 -123 404
-249 204 -215 283 -525 208 -820 -24 -93 -97 -236 -165 -321 -109 -137 -295
-259 -457 -301 -467 -118 -933 149 -1069 612 -140 479 168 984 666 1094 120
27 292 20 413 -15z"/>
<path d="M5616 5239 c-263 -38 -420 -306 -338 -576 26 -84 117 -190 200 -232
98 -50 220 -63 326 -36 228 59 362 295 301 528 -57 221 -257 350 -489 316z"/>
</g>
</svg>
