<svg width="24" height="24" viewBox="0 0 24 24" fill="none" xmlns="http://www.w3.org/2000/svg">
<path d="M7.8 2H16.2C19.4 2 22 4.6 22 7.8V16.2C22 19.4 19.4 22 16.2 22H7.8C4.6 22 2 19.4 2 16.2V7.8C2 4.6 4.6 2 7.8 2ZM7.6 4C5.6 4 4 5.6 4 7.6V16.4C4 18.4 5.6 20 7.6 20H16.4C18.4 20 20 18.4 20 16.4V7.6C20 5.6 18.4 4 16.4 4H7.6ZM17.3 5.5C18 5.5 18.6 6.1 18.6 6.8C18.6 7.5 17.9 8 17.3 8C16.7 8 16 7.4 16 6.8C16 6.2 16.6 5.5 17.3 5.5ZM12 7C14.8 7 17 9.2 17 12C17 14.8 14.8 17 12 17C9.2 17 7 14.8 7 12C7 9.2 9.2 7 12 7ZM12 9C10.3 9 9 10.3 9 12C9 13.7 10.3 15 12 15C13.7 15 15 13.7 15 12C15 10.3 13.7 9 12 9Z" fill="black"/>
</svg>
