<svg width="24" height="24" viewBox="0 0 24 24" fill="none" xmlns="http://www.w3.org/2000/svg">
<path d="M22 11.5C22 10.1 20.9 9.00001 19.5 9.00001C18.9 9.00001 18.3 9.20001 17.9 9.60001C16.4 8.70001 14.6 8.10001 12.5 8.00001L13.6 4.00001L17 5.00001C17 6.10001 17.9 7.00001 19 7.00001C20.1 7.00001 21 6.10001 21 5.00001C21 3.90001 20.1 3.00001 19 3.00001C18.3 3.00001 17.6 3.40001 17.3 4.00001L13.3 3.00001C13 2.90001 12.8 3.10001 12.7 3.40001L11.5 8.00001C9.5 8.10001 7.6 8.70001 6.1 9.60001C5.7 9.20001 5.1 9.00001 4.5 9.00001C3.1 9.00001 2 10.1 2 11.5C2 12.4 2.4 13.1 3.1 13.6L3 14.5C3 18.1 7 21 12 21C17 21 21 18.1 21 14.5L20.9 13.6C21.6 13.1 22 12.4 22 11.5ZM9 11.8C9.7 11.8 10.2 12.4 10.2 13C10.2 13.6 9.7 14.2 9 14.2C8.3 14.2 7.8 13.7 7.8 13C7.8 12.3 8.3 11.8 9 11.8ZM15.8 17.2C14 18.3 10 18.3 8.2 17.2C8 17 7.9 16.7 8.1 16.5C8.3 16.3 8.6 16.2 8.8 16.4C10 17.3 14 17.3 15.2 16.4C15.4 16.2 15.7 16.3 15.9 16.5C16.1 16.7 16 17 15.8 17.2ZM15 14.2C14.3 14.2 13.8 13.6 13.8 13C13.8 12.3 14.4 11.8 15 11.8C15.7 11.8 16.2 12.4 16.2 13C16.2 13.7 15.7 14.2 15 14.2Z"/>
</svg>
