<svg width="24" height="24" viewBox="0 0 24 24" fill="none" xmlns="http://www.w3.org/2000/svg">
<path d="M22.5 6.00031C21.7 6.30031 20.9 6.60031 20 6.7003C20.9 6.2003 21.6 5.30031 21.9 4.30031C21.1 4.80031 20.1 5.10031 19.2 5.40031C18.4 4.50031 17.3 4.00031 16 4.00031C13.6 4.00031 11.7 5.90031 11.7 8.30031C11.7 8.60031 11.7 9.00031 11.8 9.30031C8.29998 9.10031 5.09998 7.40031 2.99998 4.80031C2.59998 5.40031 2.39998 6.20031 2.39998 6.90031C2.39998 8.40031 3.19998 9.7003 4.29998 10.5003C3.59998 10.5003 2.89998 10.3003 2.39998 10.0003C2.39998 12.1003 3.89998 13.8003 5.79998 14.2003C5.39998 14.3003 5.09998 14.4003 4.69998 14.4003C4.39998 14.4003 4.19998 14.4003 3.89998 14.3003C4.39998 16.0003 5.99998 17.2003 7.89998 17.3003C6.39998 18.5003 4.59998 19.1003 2.59998 19.1003C2.29998 19.1003 1.89998 19.1003 1.59998 19.0003C3.39998 20.3003 5.69998 21.0003 8.09998 21.0003C16 21.0003 20.3 14.5003 20.3 8.80031C20.3 8.60031 20.3 8.4003 20.3 8.2003C21.2 7.60031 21.9 6.90031 22.5 6.00031Z" fill="#B0BEC5"/>
</svg>
