<svg width="24" height="24" viewBox="0 0 24 24" fill="none" xmlns="http://www.w3.org/2000/svg">
<path d="M22.5 6C21.7 6.3 20.9 6.6 20 6.7C20.9 6.2 21.6 5.3 21.9 4.3C21.1 4.8 20.1 5.1 19.2 5.4C18.4 4.5 17.3 4 16 4C13.6 4 11.7 5.9 11.7 8.3C11.7 8.6 11.7 9 11.8 9.3C8.29998 9.1 5.09998 7.4 2.99998 4.8C2.59998 5.4 2.39998 6.2 2.39998 6.9C2.39998 8.4 3.19998 9.7 4.29998 10.5C3.59998 10.5 2.89998 10.3 2.39998 10C2.39998 12.1 3.89998 13.8 5.79998 14.2C5.39998 14.3 5.09998 14.4 4.69998 14.4C4.39998 14.4 4.19998 14.4 3.89998 14.3C4.39998 16 5.99998 17.2 7.89998 17.3C6.39998 18.5 4.59998 19.1 2.59998 19.1C2.29998 19.1 1.89998 19.1 1.59998 19C3.39998 20.3 5.69998 21 8.09998 21C16 21 20.3 14.5 20.3 8.8C20.3 8.6 20.3 8.4 20.3 8.2C21.2 7.6 21.9 6.9 22.5 6Z" fill="white"/>
</svg>
