<svg width="24" height="24" viewBox="0 0 24 24" fill="none" xmlns="http://www.w3.org/2000/svg">
<path d="M22.5001 6C21.7001 6.3 20.9001 6.6 20.0001 6.7C20.9001 6.2 21.6001 5.3 21.9001 4.3C21.1001 4.8 20.1001 5.1 19.2001 5.4C18.4001 4.5 17.3001 4 16.0001 4C13.6001 4 11.7001 5.9 11.7001 8.3C11.7001 8.6 11.7001 9 11.8001 9.3C8.3001 9.1 5.1001 7.4 3.0001 4.8C2.6001 5.4 2.4001 6.2 2.4001 6.9C2.4001 8.4 3.2001 9.7 4.3001 10.5C3.6001 10.5 2.9001 10.3 2.4001 10C2.4001 12.1 3.9001 13.8 5.8001 14.2C5.4001 14.3 5.1001 14.4 4.7001 14.4C4.4001 14.4 4.2001 14.4 3.9001 14.3C4.4001 16 6.0001 17.2 7.9001 17.3C6.4001 18.5 4.6001 19.1 2.6001 19.1C2.3001 19.1 1.9001 19.1 1.6001 19C3.4001 20.3 5.7001 21 8.1001 21C16.0001 21 20.3001 14.5 20.3001 8.8C20.3001 8.6 20.3001 8.4 20.3001 8.2C21.2001 7.6 21.9001 6.9 22.5001 6Z"/>
</svg>
