<svg width="24" height="24" viewBox="0 0 24 24" fill="none" xmlns="http://www.w3.org/2000/svg">
<path d="M10.6 2C11.2 2 11.5 2.3 11.6 3L11.8 6.2L12 10.4C12 10.8 12 11.1 11.8 11.4C11.6 11.9 11.1 12 10.7 11.7C10.5 11.5 10.3 11.3 10.1 11L6.4 4.6C6 4 6.1 3.6 6.7 3.2C7.5 2.7 9.7 2 10.6 2ZM14.8 14.9L15.1 15L19 16.4C19.7 16.6 19.8 17 19.5 17.7C19.1 18.8 18.3 19.8 17.4 20.6C16.9 21 16.5 20.9 16.2 20.4L13.9 16.4C13.6 15.6 14 14.8 14.8 14.9ZM4.5 14C4.5 13.3 4.5 12.6 4.8 11.9C5 11.2 5.3 11 6 11.3L9.6 12.8C10.1 13 10.3 13.3 10.3 13.8C10.3 14.3 9.9 14.5 9.5 14.7L5.8 15.9C5.1 16.1 4.7 15.9 4.6 15.2C4.6 14.8 4.5 14.4 4.5 14ZM12 21C12 21.8 11.6 22.1 10.8 22C9.8 21.8 8.8 21.4 7.9 20.8C7.5 20.5 7.4 20 7.7 19.6L10.4 16C10.6 15.7 11 15.6 11.3 15.8C11.7 15.9 11.9 16.2 11.9 16.7V21H12ZM14.4 13.3C13.7 13.3 13.2 12.5 13.6 11.9C14.4 10.7 15.3 9.5 16.2 8.3C16.5 7.9 16.9 7.9 17.3 8.2C18.2 9 18.9 10 19.3 11.3C19.4 11.7 19.3 12.2 18.8 12.3L15.1 13.3H14.4Z" fill="black"/>
</svg>
