<svg width="24" height="24" viewBox="0 0 24 24" fill="none" xmlns="http://www.w3.org/2000/svg">
<path d="M15.5 4.5C15.5 5.1 15.7 5.5 16.1 5.9C16.5 6.3 16.9 6.5 17.5 6.5C18 6.5 18.5 6.3 18.9 5.9C19.3 5.5 19.5 5 19.5 4.5C19.5 4 19.3 3.5 18.9 3.1C18.5 2.7 18 2.5 17.5 2.5C17 2.5 16.5 2.7 16.1 3.1C15.7 3.5 15.5 4 15.5 4.5ZM22 4.5C22 5.5 21.6 6.7 20.9 8.1C20.1 9.5 19.4 10.6 18.6 11.5L17.5 12.8C17.1 12.4 16.7 11.9 16.2 11.4C15.7 10.8 15 9.8 14.2 8.3C13.4 6.7 13 5.5 13 4.5C13 3.2 13.4 2.2 14.3 1.3C15.2 0.4 16.2 0 17.5 0C18.7 0 19.8 0.4 20.7 1.3C21.5 2.2 22 3.3 22 4.5ZM21 11.6V19C21 19.5 20.8 20 20.4 20.4C20 20.8 19.5 21 19 21H5C4.5 21 4 20.8 3.6 20.4C3.2 20 3 19.5 3 19V5C3 4.5 3.2 4 3.6 3.6C4 3.2 4.5 3 5 3H11.2C11.1 3.6 11 4.1 11 4.5C11 5.7 11.4 7.1 12.3 8.7C13.2 10.3 13.9 11.5 14.4 12.2C15 12.9 15.5 13.6 16 14.1L17.5 15.7L19 14.1C20.3 12.5 20.9 11.6 21 11.6ZM9 14.5V15.9H11.3C11 17 10.3 17.5 9 17.5C8.3 17.5 7.7 17.2 7.3 16.7C6.8 16.2 6.6 15.6 6.6 14.9C6.6 14.2 6.8 13.6 7.3 13.1C7.8 12.6 8.3 12.3 9 12.3C9.7 12.3 10.2 12.5 10.6 12.9L11.7 11.9C10.9 11.2 10.1 10.8 9.1 10.8H9C7.9 10.8 7 11.2 6.2 12C5.4 13 5 13.9 5 15C5 16.1 5.4 17 6.2 17.8C7 18.6 7.9 19 9 19C10.2 19 11.1 18.6 11.8 17.9C12.5 17.2 12.9 16.2 12.9 15.1C12.9 14.8 12.9 14.6 12.9 14.5H9Z" fill="black"/>
</svg>
