<svg width="24" height="24" viewBox="0 0 24 24" fill="none" xmlns="http://www.w3.org/2000/svg">
<path d="M21 21.0003H17V14.2003C17 13.1003 15.8 12.3003 14.7 12.3003C13.6 12.3003 13 13.2003 13 14.3003V21.0003H9V9.00031H13V11.0003C13.7 9.90031 15.4 9.2003 16.5 9.2003C19 9.2003 21 11.2003 21 13.7003V21.0003ZM7 21.0003H3V9.00031H7V21.0003ZM5 3.00031C6.1 3.00031 7 3.90031 7 5.00031C7 6.10031 6.1 7.00031 5 7.00031C3.9 7.00031 3 6.10031 3 5.00031C3 3.90031 3.9 3.00031 5 3.00031Z" fill="#B0BEC5"/>
</svg>
