<svg width="24" height="24" viewBox="0 0 24 24" fill="none" xmlns="http://www.w3.org/2000/svg">
<path d="M22.5 6C21.7 6.3 20.9 6.6 20 6.7C20.9 6.2 21.6 5.3 21.9 4.3C21.1 4.8 20.1 5.1 19.2 5.4C18.4 4.5 17.3 4 16 4C13.6 4 11.7 5.9 11.7 8.3C11.7 8.6 11.7 9 11.8 9.3C8.30001 9.1 5.10001 7.4 3.00001 4.8C2.60001 5.4 2.40001 6.2 2.40001 6.9C2.40001 8.4 3.20001 9.7 4.30001 10.5C3.60001 10.5 2.90001 10.3 2.40001 10C2.40001 12.1 3.90001 13.8 5.80001 14.2C5.40001 14.3 5.10001 14.4 4.70001 14.4C4.40001 14.4 4.20001 14.4 3.90001 14.3C4.40001 16 6.00001 17.2 7.90001 17.3C6.40001 18.5 4.60001 19.1 2.60001 19.1C2.30001 19.1 1.90001 19.1 1.60001 19C3.40001 20.3 5.70001 21 8.10001 21C16 21 20.3 14.5 20.3 8.8C20.3 8.6 20.3 8.4 20.3 8.2C21.2 7.6 21.9 6.9 22.5 6Z" fill="#90A4AE"/>
</svg>
