<svg width="24" height="24" viewBox="0 0 24 24" fill="none" xmlns="http://www.w3.org/2000/svg">
<path d="M19.5002 14.6C21.0002 16 21.4002 16.7 21.4002 16.8C22.0002 17.9 20.7002 17.9 20.7002 17.9H18.1002C18.1002 17.9 17.5002 18 16.8002 17.5C15.8002 16.8 14.9002 15.1 14.2002 15.3C13.5002 15.5 13.5002 17.1 13.5002 17.1C13.5002 17.1 13.5002 17.3 13.3002 17.5C13.1002 17.7 12.8002 17.6 12.8002 17.6H11.6002C11.6002 17.6 9.00021 17.9 6.80021 15.5C4.40021 13 2.20021 8 2.20021 8C2.20021 8 2.10021 7.7 2.20021 7.5C2.50021 7.5 3.00021 7.5 3.00021 7.5H5.80021C5.80021 7.5 6.10021 7.5 6.20021 7.7C6.30021 7.8 6.40021 8 6.40021 8C6.40021 8 6.80021 9.1 7.40021 10.1C8.60021 12.1 9.10021 12.5 9.50021 12.3C10.1002 12 9.90021 9.5 9.90021 9.5C9.90021 9.5 9.90021 8.6 9.60021 8.2C9.40021 7.9 9.00021 7.8 8.80021 7.8C8.60021 7.8 8.90021 7.4 9.20021 7.2C9.70021 7 10.6002 7 11.6002 7C12.4002 7 12.6002 7.1 13.0002 7.1C14.0002 7.3 13.6002 8.2 13.6002 10.3C13.6002 11 13.5002 11.9 14.0002 12.3C14.2002 12.4 14.7002 12.3 16.0002 10.1C16.6002 9.1 17.1002 7.8 17.1002 7.8C17.1002 7.8 17.2002 7.6 17.4002 7.5C17.6002 7.4 17.8002 7.4 17.8002 7.4H20.7002C20.7002 7.4 21.6002 7.3 21.7002 7.7C21.8002 8.1 21.4002 9.1 20.2002 10.6C18.1002 13.3 17.9002 13.1 19.5002 14.6Z" fill="black"/>
</svg>
