<svg width="32" height="32" viewBox="0 0 32 32" fill="#2962ff" xmlns="http://www.w3.org/2000/svg">
<path d="M21.9997 7.99992V23.3333C21.9997 26.2799 19.613 28.6666 16.6663 28.6666C13.7197 28.6666 11.333 26.2799 11.333 23.3333V6.66658C11.333 4.82659 12.8263 3.33325 14.6663 3.33325C16.5063 3.33325 17.9997 4.82659 17.9997 6.66658V20.6666C17.9997 21.3999 17.3997 21.9999 16.6663 21.9999C15.933 21.9999 15.333 21.3999 15.333 20.6666V7.99992H13.333V20.6666C13.333 22.5066 14.8263 23.9999 16.6663 23.9999C18.5063 23.9999 19.9997 22.5066 19.9997 20.6666V6.66658C19.9997 3.71992 17.613 1.33325 14.6663 1.33325C11.7197 1.33325 9.33301 3.71992 9.33301 6.66658V23.3333C9.33301 27.3866 12.613 30.6666 16.6663 30.6666C20.7197 30.6666 23.9997 27.3866 23.9997 23.3333V7.99992H21.9997Z"/>
</svg>
