<svg width="40" height="24" viewBox="0 0 40 24" fill="none" xmlns="http://www.w3.org/2000/svg">
<path d="M21.6666 10L21.6666 10.5L21.6666 10ZM37.3535 9.64645C37.5488 9.84171 37.5488 10.1583 37.3535 10.3536L34.1715 13.5355C33.9763 13.7308 33.6597 13.7308 33.4644 13.5355C33.2692 13.3403 33.2692 13.0237 33.4644 12.8284L36.2929 10L33.4644 7.17158C33.2692 6.97631 33.2692 6.65973 33.4644 6.46447C33.6597 6.26921 33.9763 6.26921 34.1715 6.46447L37.3535 9.64645ZM1 9.49999L21.6666 9.5L21.6666 10.5L1 10.5L1 9.49999ZM21.6666 9.5L37 9.5L37 10.5L21.6666 10.5L21.6666 9.5Z" fill="black"/>
</svg>
