<svg width="24" height="24" viewBox="0 0 24 24" fill="#F44336" xmlns="http://www.w3.org/2000/svg">
<path d="M17.5501 11.2C17.3201 10.9 17.0501 10.64 16.7901 10.38C16.1401 9.78 15.3901 9.35 14.7601 8.72C13.3001 7.26 13.0001 4.85 13.9101 3C13.0001 3.23 12.1601 3.75 11.4601 4.32C8.92009 6.4 7.92009 10.07 9.12009 13.22C9.16009 13.32 9.20009 13.42 9.20009 13.55C9.20009 13.77 9.05009 13.97 8.85009 14.05C8.63009 14.15 8.39009 14.09 8.21009 13.93C8.15009 13.88 8.11009 13.83 8.06009 13.76C6.96009 12.33 6.78009 10.28 7.53009 8.64C5.89009 10 5.00009 12.3 5.14009 14.47C5.18009 14.97 5.24009 15.47 5.41009 15.97C5.55009 16.57 5.81009 17.17 6.13009 17.7C7.17009 19.43 9.00009 20.67 10.9701 20.92C13.0701 21.19 15.3201 20.8 16.9301 19.32C18.7301 17.66 19.3801 15 18.4301 12.72L18.3001 12.46C18.1001 12 17.8301 11.59 17.5001 11.21L17.5501 11.2ZM14.4501 17.5C14.1701 17.74 13.7201 18 13.3701 18.1C12.2701 18.5 11.1701 17.94 10.5001 17.28C11.6901 17 12.3901 16.12 12.5901 15.23C12.7601 14.43 12.4501 13.77 12.3201 13C12.2001 12.26 12.2201 11.63 12.5001 10.94C12.6701 11.32 12.8701 11.7 13.1001 12C13.8601 13 15.0501 13.44 15.3001 14.8C15.3401 14.94 15.3601 15.08 15.3601 15.23C15.3901 16.05 15.0401 16.95 14.4401 17.5H14.4501Z"/>
</svg>
