<svg width="22" height="18" viewBox="0 0 22 18" fill="none" xmlns="http://www.w3.org/2000/svg">
<path d="M17.5003 12.21C17.5003 12.5163 17.2477 12.7672 16.9391 12.7672H5.06155C4.75292 12.7672 4.50037 12.5163 4.50037 12.21V0.557153C4.50037 0.25087 4.75292 0 5.06155 0H16.9394C17.2481 0 17.5006 0.25087 17.5006 0.557153V12.21H17.5003Z" fill="#0C9D58"/>
<path opacity="0.2" d="M17.5002 2.9953L13.0485 2.42236L17.5002 3.6166V2.9953Z" fill="#004D40"/>
<path opacity="0.2" d="M11.2145 0.607794L4.47327 3.6179L11.9238 0.906017V0.898629C11.7928 0.617869 11.4738 0.486893 11.2145 0.607794Z" fill="#004D40"/>
<path opacity="0.2" d="M16.9394 0H5.06155C4.75292 0 4.50037 0.250875 4.50037 0.557165V0.682099C4.50037 0.375809 4.75292 0.124934 5.06155 0.124934H16.9394C17.2481 0.124934 17.5006 0.375809 17.5006 0.682099V0.557165C17.5003 0.250875 17.2481 0 16.9394 0Z" fill="white"/>
<path d="M7.38302 11.8523C7.30275 12.1515 7.46295 12.4568 7.73901 12.5307L18.7404 15.4894C19.0164 15.5633 19.3079 15.3789 19.3878 15.0797L21.9795 5.40756C22.0598 5.10833 21.8996 4.80306 21.6235 4.72917L10.6222 1.77045C10.3461 1.69657 10.0546 1.88094 9.97467 2.18017L7.38302 11.8523Z" fill="#EA4335"/>
<path opacity="0.2" d="M19.5005 8.86011L20.0791 12.3753L19.5005 14.5357V8.86011Z" fill="#3E2723"/>
<path opacity="0.2" d="M13.1005 2.56653L13.6189 2.7059L13.9405 4.87535L13.1005 2.56653Z" fill="#3E2723"/>
<path opacity="0.2" d="M21.6234 4.72917L10.6221 1.77045C10.346 1.69657 10.0545 1.88094 9.97456 2.18017L7.38291 11.8523C7.37854 11.8684 7.37753 11.8848 7.37451 11.901L9.94669 2.30208C10.027 2.00285 10.3185 1.81848 10.5942 1.89236L21.5955 4.85108C21.8565 4.92094 22.0113 5.198 21.9599 5.48111L21.9797 5.40756C22.0596 5.10833 21.8995 4.80306 21.6234 4.72917Z" fill="white"/>
<path d="M16.047 10.6609C16.1528 10.952 16.0198 11.2701 15.7515 11.3678L4.14258 15.593C3.87391 15.6907 3.56763 15.5325 3.46184 15.2413L0.0369757 5.83186C-0.0688129 5.54069 0.0641785 5.22265 0.332512 5.12492L11.9414 0.899761C12.2101 0.802033 12.5163 0.960212 12.6221 1.25138L16.047 10.6609Z" fill="#FFC107"/>
<path opacity="0.2" d="M0.08103 5.95014C-0.0247605 5.65897 0.108233 5.34093 0.376572 5.2432L11.9856 1.0177C12.2513 0.92098 12.5532 1.07513 12.6624 1.36026L12.6224 1.25077C12.5163 0.959602 12.21 0.801423 11.9417 0.899151L0.332576 5.12465C0.063902 5.22238 -0.0690917 5.54042 0.0370346 5.83159L3.46196 15.2411C3.46297 15.2441 3.46498 15.2468 3.46633 15.2501L0.08103 5.95014Z" fill="white"/>
<path d="M19.5007 17.4377C19.5007 17.747 19.2475 18.0002 18.9381 18.0002H3.06314C2.75383 18.0002 2.50061 17.747 2.50061 17.4377V5.43789C2.50061 5.12859 2.75383 4.87537 3.06314 4.87537H18.9381C19.2475 4.87537 19.5007 5.12859 19.5007 5.43789V17.4377Z" fill="#4285F4"/>
<path d="M16.4692 9.62558H11.7191V8.37537H16.4692C16.6072 8.37537 16.7191 8.48722 16.7191 8.62527V9.37533C16.7191 9.51339 16.6072 9.62558 16.4692 9.62558Z" fill="white"/>
<path d="M16.4692 14.3752H11.7191V13.1252H16.4692C16.6072 13.1252 16.7191 13.2371 16.7191 13.3751V14.125C16.7191 14.2634 16.6072 14.3752 16.4692 14.3752Z" fill="white"/>
<path d="M17.2191 11.9994H11.7191V10.7494H17.2191C17.3571 10.7494 17.469 10.8612 17.469 10.9993V11.7492C17.469 11.8875 17.3571 11.9994 17.2191 11.9994Z" fill="white"/>
<path opacity="0.2" d="M18.9381 17.8749H3.06314C2.75383 17.8749 2.50061 17.6217 2.50061 17.3124V17.4373C2.50061 17.7466 2.75383 17.9998 3.06314 17.9998H18.9381C19.2475 17.9998 19.5007 17.7466 19.5007 17.4373V17.3124C19.5007 17.6217 19.2475 17.8749 18.9381 17.8749Z" fill="#1A237E"/>
<path opacity="0.2" d="M3.06314 5.0003H18.9381C19.2475 5.0003 19.5007 5.25352 19.5007 5.56282V5.43789C19.5007 5.12859 19.2475 4.87537 18.9381 4.87537H3.06314C2.75383 4.87537 2.50061 5.12859 2.50061 5.43789V5.56282C2.50061 5.25352 2.75383 5.0003 3.06314 5.0003Z" fill="white"/>
<path d="M7.46863 10.8752V12.0026H9.08635C8.95269 12.6894 8.34886 13.1874 7.46863 13.1874C6.48664 13.1874 5.69037 12.3569 5.69037 11.3749C5.69037 10.393 6.48664 9.56251 7.46863 9.56251C7.91092 9.56251 8.30688 9.71463 8.61954 10.0125V10.0132L9.47559 9.15717C8.95571 8.67257 8.27766 8.37537 7.46829 8.37537C5.81161 8.37537 4.46826 9.71833 4.46826 11.3753C4.46826 13.0322 5.81127 14.3752 7.46829 14.3752C9.20087 14.3752 10.3407 13.1572 10.3407 11.4435C10.3407 11.247 10.3226 11.0576 10.2934 10.8752H7.46863Z" fill="white"/>
<g opacity="0.2">
<path opacity="0.2" d="M7.50049 12.0029V12.1279H9.08799C9.09974 12.0869 9.10982 12.0452 9.11821 12.0029H7.50049Z" fill="#1A237E"/>
<path opacity="0.2" d="M7.50045 14.3753C5.86456 14.3753 4.53529 13.0659 4.50205 11.4377C4.50171 11.4586 4.50037 11.4794 4.50037 11.5002C4.50037 13.1572 5.8434 14.5002 7.50045 14.5002C9.23307 14.5002 10.3729 13.2822 10.3729 11.5684C10.3729 11.5546 10.3712 11.5419 10.3712 11.5281C10.334 13.1972 9.20452 14.3753 7.50045 14.3753Z" fill="#1A237E"/>
<path opacity="0.2" d="M8.65146 10.0128C8.33879 9.71526 7.94251 9.56279 7.50055 9.56279C6.51856 9.56279 5.72229 10.3933 5.72229 11.3753C5.72229 11.3965 5.72464 11.4169 5.72531 11.4378C5.75856 10.4833 6.53938 9.68772 7.50055 9.68772C7.94284 9.68772 8.33879 9.83986 8.65146 10.1377V10.1384L9.56997 9.2199C9.54848 9.19975 9.52464 9.18195 9.50247 9.16248L8.6518 10.0135L8.65146 10.0128Z" fill="#1A237E"/>
</g>
<path opacity="0.2" d="M16.7191 9.49997V9.37512C16.7191 9.51306 16.6072 9.62482 16.4692 9.62482H11.7191V9.74967H16.4692C16.6072 9.75001 16.7191 9.63825 16.7191 9.49997Z" fill="#1A237E"/>
<path opacity="0.2" d="M16.4692 14.3744H11.7191V14.4993H16.4692C16.6072 14.4993 16.7191 14.3875 16.7191 14.2494V14.1245C16.7191 14.2625 16.6072 14.3744 16.4692 14.3744Z" fill="#1A237E"/>
<path opacity="0.2" d="M17.2191 11.9996H11.7191V12.1245H17.2191C17.3571 12.1245 17.469 12.0127 17.469 11.8747V11.7498C17.469 11.8878 17.3571 11.9996 17.2191 11.9996Z" fill="#1A237E"/>
<path d="M21.6237 4.72892L17.5007 3.61999V0.557153C17.5007 0.25087 17.2481 0 16.9395 0H5.06161C4.75298 0 4.50043 0.25087 4.50043 0.557153V3.6079L0.332692 5.12487C0.064023 5.2226 -0.0689684 5.54064 0.037156 5.83181L2.50052 12.6003V17.4373C2.50052 17.7466 2.75374 17.9998 3.06305 17.9998H18.9381C19.2474 17.9998 19.5006 17.7466 19.5006 17.4373V14.6603L21.9801 5.40731C22.06 5.10808 21.8998 4.8028 21.6237 4.72892Z" fill="url(#paint0_radial)"/>
<defs>
<radialGradient id="paint0_radial" cx="0" cy="0" r="1" gradientUnits="userSpaceOnUse" gradientTransform="translate(4.95886 1.45833) scale(21.3947)">
<stop stop-color="white" stop-opacity="0.1"/>
<stop offset="1" stop-color="white" stop-opacity="0"/>
</radialGradient>
</defs>
</svg>
