<svg width="12" height="8" viewBox="0 0 12 8" fill="none" xmlns="http://www.w3.org/2000/svg">
<path fill-rule="evenodd" clip-rule="evenodd" d="M6 8C9.31371 8 12 4 12 4C12 4 9.31371 0 6 0C2.68629 0 0 4 0 4C0 4 2.68629 8 6 8ZM6 6.5C7.38071 6.5 8.5 5.38071 8.5 4C8.5 2.61929 7.38071 1.5 6 1.5C4.61929 1.5 3.5 2.61929 3.5 4C3.5 5.38071 4.61929 6.5 6 6.5Z" fill="#B0BEC5"/>
<path d="M7 4C7 4.55228 6.55228 5 6 5C5.44772 5 5 4.55228 5 4C5 3.44772 5.44772 3 6 3C6.55228 3 7 3.44772 7 4Z" fill="#B0BEC5"/>
</svg>
