<svg width="58" height="58" viewBox="0 0 58 58" fill="none" xmlns="http://www.w3.org/2000/svg">
<path d="M16.7401 27.6498C15.9535 26.8632 14.6753 26.8632 13.8887 27.6498C13.1021 28.4364 13.1021 29.7147 13.8887 30.5013L23.1806 39.7932C23.5739 40.1865 24.0655 40.3832 24.6063 40.3832C24.6555 40.3832 24.6555 40.3832 24.7046 40.3832C25.2454 40.334 25.7862 40.0882 26.1795 39.6457L49.4339 11.77C50.1222 10.9342 50.0238 9.65599 49.188 8.91854C48.3523 8.23025 47.074 8.32858 46.3366 9.16436L24.4588 35.3685L16.7401 27.6498Z" fill="#FF0000"/>
<path d="M43.5834 5.13287C32.2758 -1.94667 17.7726 -0.275112 8.33321 9.16428C-2.77774 20.2752 -2.77774 38.4165 8.33321 49.5275C13.8887 55.083 21.214 57.8853 28.4902 57.8853C35.7664 57.8853 43.0918 55.083 48.6473 49.5275C58.1358 40.0389 59.7582 25.4866 52.6295 14.179C52.0395 13.2448 50.8105 12.9499 49.8764 13.5398C48.9422 14.1298 48.6473 15.3589 49.2372 16.293C55.3827 26.0273 53.9569 38.5149 45.7958 46.676C36.2581 56.2137 20.6732 56.2137 11.1355 46.676C1.59781 37.1383 1.59781 21.5535 11.1355 12.0158C19.2967 3.90378 31.735 2.47804 41.4694 8.52515C42.4035 9.11511 43.6326 8.82013 44.2226 7.88602C44.8125 6.95192 44.5175 5.72283 43.5834 5.13287Z" fill="#C8C8C8"/>
</svg>
