<svg width="19" height="20" viewBox="0 0 19 20" fill="none" xmlns="http://www.w3.org/2000/svg">
<path d="M19 4.58V16.67C19 17.5532 18.6492 18.4002 18.0247 19.0247C17.4002 19.6492 16.5532 20 15.67 20H9.58004C8.68004 20 7.83004 19.64 7.21004 19L0.670044 12.36C0.670044 12.36 1.72004 11.33 1.75004 11.32C1.93004 11.16 2.16004 11.07 2.41004 11.07C2.59004 11.07 2.76004 11.12 2.91004 11.21C2.94004 11.22 6.50004 13.26 6.50004 13.26V3.33C6.50004 2.99848 6.63174 2.68054 6.86616 2.44612C7.10058 2.2117 7.41852 2.08 7.75004 2.08C8.08156 2.08 8.39951 2.2117 8.63393 2.44612C8.86835 2.68054 9.00004 2.99848 9.00004 3.33V9.17H9.83004V1.25C9.83004 0.918479 9.96174 0.600537 10.1962 0.366117C10.4306 0.131696 10.7485 0 11.08 0C11.78 0 12.33 0.56 12.33 1.25V9.17H13.17V2.08C13.17 1.39 13.72 0.83 14.42 0.83C14.7516 0.83 15.0695 0.961696 15.3039 1.19612C15.5383 1.43054 15.67 1.74848 15.67 2.08V9.17H16.5V4.58C16.5 4.24848 16.6317 3.93054 16.8662 3.69612C17.1006 3.4617 17.4185 3.33 17.75 3.33C18.0816 3.33 18.3995 3.4617 18.6339 3.69612C18.8683 3.93054 19 4.24848 19 4.58Z" fill="#B0BEC5"/>
</svg>
