<svg width="210" height="20" viewBox="0 0 252 24" fill="none" xmlns="http://www.w3.org/2000/svg">
<path d="M3.15 19.425C1.575 17.925 0.75 15.75 0.75 12.975V2.625H7.05V12.75C7.05 14.1 7.275 15.15 7.8 15.75C8.325 16.35 9 16.65 9.9 16.65C10.8 16.65 11.55 16.35 12 15.75C12.525 15.15 12.75 14.1 12.75 12.75V2.625H18.975V12.9C18.975 15.675 18.15 17.85 16.575 19.425C14.925 21 12.75 21.75 9.825 21.75C6.975 21.75 4.725 21 3.15 19.425ZM24.225 4.5C24.9 4.5 25.275 4.725 25.425 4.95C25.65 5.175 25.875 5.4 25.875 6.075C25.875 6.75 25.65 7.05 25.425 7.2C25.2 7.425 24.9 7.65 24.225 7.65C23.55 7.65 23.25 7.425 23.025 7.2C22.8 6.975 22.575 6.675 22.575 6.075C22.575 5.475 22.8 5.175 23.025 4.95C23.25 4.8 23.55 4.5 24.225 4.5ZM24.225 2.625C23.25 2.625 22.425 3 21.75 3.6C21.075 4.2 20.775 5.025 20.775 6.075C20.775 7.125 21.075 7.95 21.75 8.55C22.425 9.225 23.25 9.525 24.3 9.525C25.35 9.525 26.175 9.225 26.85 8.55C27.525 7.875 27.825 7.05 27.825 6.075C27.825 5.1 27.525 4.2 26.85 3.6C26.1 3 25.275 2.625 24.225 2.625ZM35.175 7.575H29.7V2.625H46.95V7.5H41.475V21.3H35.175V7.575V7.575ZM52.725 20.55C51.15 19.725 49.875 18.525 48.975 17.1C48.075 15.6 47.625 13.95 47.625 12.075C47.625 10.2 48.075 8.55 48.975 7.05C49.875 5.55 51.15 4.425 52.725 3.6C54.3 2.625 56.1 2.25 58.125 2.25C60.15 2.25 61.95 2.7 63.525 3.525C65.1 4.35 66.375 5.55 67.275 6.975C68.175 8.4 68.625 10.125 68.625 12C68.625 13.875 68.175 15.525 67.275 17.025C66.375 18.525 65.1 19.65 63.525 20.475C61.95 21.3 60.15 21.75 58.125 21.75C56.1 21.75 54.3 21.375 52.725 20.55ZM60.225 16.125C60.825 15.75 61.35 15.225 61.725 14.475C62.1 13.8 62.25 12.975 62.25 12C62.25 11.025 62.1 10.2 61.725 9.525C61.35 8.85 60.825 8.25 60.225 7.875C59.625 7.5 58.875 7.275 58.125 7.275C57.375 7.275 56.625 7.5 56.025 7.875C55.425 8.25 54.9 8.775 54.525 9.525C54.15 10.2 54 11.025 54 12C54 12.975 54.225 13.8 54.525 14.475C54.9 15.15 55.425 15.75 56.025 16.125C56.625 16.5 57.375 16.725 58.125 16.725C58.875 16.65 59.625 16.5 60.225 16.125ZM70.95 2.625H80.175C82.275 2.625 84.075 3 85.725 3.75C87.3 4.5 88.575 5.625 89.475 6.975C90.375 8.4 90.825 10.05 90.825 11.925C90.825 13.8 90.375 15.45 89.475 16.875C88.575 18.3 87.375 19.35 85.725 20.1C84.15 20.85 82.275 21.225 80.175 21.225H70.95V2.625ZM79.95 16.425C81.3 16.425 82.35 16.05 83.175 15.3C84 14.55 84.375 13.425 84.375 12C84.375 10.575 84 9.525 83.175 8.7C82.35 7.95 81.3 7.575 79.95 7.575H77.25V16.425H79.95ZM105.525 18.075H98.4L97.125 21.3H90.75L98.925 2.625H105.15L113.25 21.375H106.725L105.525 18.075ZM103.8 13.575L102 8.85L100.2 13.575H103.8ZM124.2 14.55V21.3H117.9V14.4L110.85 2.55H117.525L121.35 9L125.175 2.55H131.25L124.2 14.55Z" fill="#fff"/>
<path d="M144.313 21.882C142.315 21.882 140.515 21.468 138.913 20.64C137.311 19.794 136.051 18.624 135.133 17.13C134.233 15.618 133.783 13.908 133.783 12C133.783 10.092 134.233 8.39098 135.133 6.89698C136.051 5.38498 137.311 4.21498 138.913 3.38698C140.515 2.54098 142.315 2.11798 144.313 2.11798C146.149 2.11798 147.787 2.44198 149.227 3.08998C150.667 3.73798 151.855 4.67398 152.791 5.89798L148.768 9.48898C147.598 8.01298 146.221 7.27498 144.637 7.27498C143.305 7.27498 142.234 7.70698 141.424 8.57098C140.614 9.41698 140.209 10.56 140.209 12C140.209 13.44 140.614 14.592 141.424 15.456C142.234 16.302 143.305 16.725 144.637 16.725C146.221 16.725 147.598 15.987 148.768 14.511L152.791 18.102C151.855 19.326 150.667 20.262 149.227 20.91C147.787 21.558 146.149 21.882 144.313 21.882Z" fill="#CFD8DC"/>
<path d="M162.731 16.698H161.003V21.45H154.631V2.54998H163.73C165.476 2.54998 166.997 2.83798 168.293 3.41398C169.589 3.98998 170.588 4.81798 171.29 5.89798C171.992 6.97798 172.343 8.23798 172.343 9.67798C172.343 11.028 172.037 12.207 171.425 13.215C170.813 14.223 169.931 15.024 168.779 15.618L172.748 21.45H165.944L162.731 16.698ZM165.917 9.67798C165.917 8.97598 165.701 8.43598 165.269 8.05798C164.837 7.66198 164.189 7.46398 163.325 7.46398H161.003V11.892H163.325C164.189 11.892 164.837 11.703 165.269 11.325C165.701 10.929 165.917 10.38 165.917 9.67798Z" fill="#CFD8DC"/>
<path d="M185.717 14.592V21.45H179.345V14.511L172.217 2.54998H178.94L182.801 9.08398L186.689 2.54998H192.845L185.717 14.592Z" fill="#CFD8DC"/>
<path d="M202.753 2.54998C204.499 2.54998 206.02 2.83798 207.316 3.41398C208.612 3.98998 209.611 4.81798 210.313 5.89798C211.015 6.97798 211.366 8.23798 211.366 9.67798C211.366 11.118 211.015 12.378 210.313 13.458C209.611 14.538 208.612 15.366 207.316 15.942C206.02 16.518 204.499 16.806 202.753 16.806H200.026V21.45H193.654V2.54998H202.753ZM202.348 11.892C203.212 11.892 203.86 11.703 204.292 11.325C204.724 10.929 204.94 10.38 204.94 9.67798C204.94 8.97598 204.724 8.43598 204.292 8.05798C203.86 7.66198 203.212 7.46398 202.348 7.46398H200.026V11.892H202.348Z" fill="#CFD8DC"/>
<path d="M217.138 7.49098H211.603V2.54998H229.045V7.49098H223.51V21.45H217.138V7.49098Z" fill="#CFD8DC"/>
<path d="M240.346 21.882C238.312 21.882 236.485 21.459 234.865 20.613C233.245 19.767 231.976 18.597 231.058 17.103C230.14 15.591 229.681 13.89 229.681 12C229.681 10.11 230.14 8.41798 231.058 6.92398C231.976 5.41198 233.245 4.23298 234.865 3.38698C236.485 2.54098 238.312 2.11798 240.346 2.11798C242.38 2.11798 244.207 2.54098 245.827 3.38698C247.447 4.23298 248.716 5.41198 249.634 6.92398C250.552 8.41798 251.011 10.11 251.011 12C251.011 13.89 250.552 15.591 249.634 17.103C248.716 18.597 247.447 19.767 245.827 20.613C244.207 21.459 242.38 21.882 240.346 21.882ZM240.346 16.725C241.138 16.725 241.849 16.536 242.479 16.158C243.127 15.762 243.64 15.213 244.018 14.511C244.396 13.791 244.585 12.954 244.585 12C244.585 11.046 244.396 10.218 244.018 9.51598C243.64 8.79598 243.127 8.24698 242.479 7.86898C241.849 7.47298 241.138 7.27498 240.346 7.27498C239.554 7.27498 238.834 7.47298 238.186 7.86898C237.556 8.24698 237.052 8.79598 236.674 9.51598C236.296 10.218 236.107 11.046 236.107 12C236.107 12.954 236.296 13.791 236.674 14.511C237.052 15.213 237.556 15.762 238.186 16.158C238.834 16.536 239.554 16.725 240.346 16.725Z" fill="#CFD8DC"/>
</svg>
