<svg width="177" height="20" viewBox="0 0 177 20" fill="none" xmlns="http://www.w3.org/2000/svg">
<path d="M2.42759 17.6154C0.834483 16.0769 0 13.8462 0 11V0.384615H6.37241V10.7692C6.37241 12.1538 6.6 13.2308 7.13103 13.8462C7.66207 14.4615 8.34483 14.7692 9.25517 14.7692C10.1655 14.7692 10.9241 14.4615 11.3793 13.8462C11.9103 13.2308 12.1379 12.1538 12.1379 10.7692V0.384615H18.4345V10.9231C18.4345 13.7692 17.6 16 16.0069 17.6154C14.3379 19.2308 12.1379 20 9.17931 20C6.29655 20 4.02069 19.2308 2.42759 17.6154ZM23.7448 2.30769C24.4276 2.30769 24.8069 2.53846 24.9586 2.76923C25.1862 3 25.4138 3.23077 25.4138 3.92308C25.4138 4.61538 25.1862 4.92308 24.9586 5.07692C24.731 5.30769 24.4276 5.53846 23.7448 5.53846C23.0621 5.53846 22.7586 5.30769 22.531 5.07692C22.3034 4.84615 22.0759 4.53846 22.0759 3.92308C22.0759 3.30769 22.3034 3 22.531 2.76923C22.7586 2.61538 23.0621 2.30769 23.7448 2.30769ZM23.7448 0.384615C22.7586 0.384615 21.9241 0.769231 21.2414 1.38462C20.5586 2 20.2552 2.84615 20.2552 3.92308C20.2552 5 20.5586 5.84615 21.2414 6.46154C21.9241 7.15385 22.7586 7.46154 23.8207 7.46154C24.8828 7.46154 25.7172 7.15385 26.4 6.46154C27.0828 5.76923 27.3862 4.92308 27.3862 3.92308C27.3862 2.92308 27.0828 2 26.4 1.38462C25.6414 0.769231 24.8069 0.384615 23.7448 0.384615ZM34.8207 5.46154H29.2828V0.384615H46.731V5.38462H41.1931V19.5385H34.8207V5.46154ZM52.5724 18.7692C50.9793 17.9231 49.6897 16.6923 48.7793 15.2308C47.869 13.6923 47.4138 12 47.4138 10.0769C47.4138 8.15385 47.869 6.46154 48.7793 4.92308C49.6897 3.38462 50.9793 2.23077 52.5724 1.38462C54.1655 0.384616 55.9862 0 58.0345 0C60.0828 0 61.9034 0.461538 63.4965 1.30769C65.0897 2.15385 66.3793 3.38462 67.2897 4.84615C68.2 6.30769 68.6552 8.07692 68.6552 10C68.6552 11.9231 68.2 13.6154 67.2897 15.1538C66.3793 16.6923 65.0897 17.8462 63.4965 18.6923C61.9034 19.5385 60.0828 20 58.0345 20C55.9862 20 54.1655 19.6154 52.5724 18.7692ZM60.1586 14.2308C60.7655 13.8462 61.2966 13.3077 61.6759 12.5385C62.0552 11.8462 62.2069 11 62.2069 10C62.2069 9 62.0552 8.15385 61.6759 7.46154C61.2966 6.76923 60.7655 6.15385 60.1586 5.76923C59.5517 5.38462 58.7931 5.15385 58.0345 5.15385C57.2759 5.15385 56.5172 5.38462 55.9103 5.76923C55.3034 6.15385 54.7724 6.69231 54.3931 7.46154C54.0138 8.15385 53.8621 9 53.8621 10C53.8621 11 54.0897 11.8462 54.3931 12.5385C54.7724 13.2308 55.3034 13.8462 55.9103 14.2308C56.5172 14.6154 57.2759 14.8462 58.0345 14.8462C58.7931 14.7692 59.5517 14.6154 60.1586 14.2308ZM71.0069 0.384615H80.3379C82.4621 0.384615 84.2828 0.769231 85.9517 1.53846C87.5448 2.30769 88.8345 3.46154 89.7448 4.84615C90.6552 6.30769 91.1103 8 91.1103 9.92308C91.1103 11.8462 90.6552 13.5385 89.7448 15C88.8345 16.4615 87.6207 17.5385 85.9517 18.3077C84.3586 19.0769 82.4621 19.4615 80.3379 19.4615H71.0069V0.384615ZM80.1103 14.5385C81.4759 14.5385 82.5379 14.1538 83.3724 13.3846C84.2069 12.6154 84.5862 11.4615 84.5862 10C84.5862 8.53846 84.2069 7.46154 83.3724 6.61539C82.5379 5.84615 81.4759 5.46154 80.1103 5.46154H77.3793V14.5385H80.1103ZM105.979 16.2308H98.7724L97.4828 19.5385H91.0345L99.3034 0.384615H105.6L113.793 19.6154H107.193L105.979 16.2308ZM104.234 11.6154L102.414 6.76923L100.593 11.6154H104.234ZM124.869 12.6154V19.5385H118.497V12.4615L111.366 0.307692H118.117L121.986 6.92308L125.855 0.307692H132L124.869 12.6154Z" fill="#fff"/>
<path d="M145.058 0V19.6702H139.634V6.781C138.757 7.44943 137.905 7.99033 137.08 8.40369C136.264 8.81706 135.237 9.21284 134 9.59103V5.1847C135.825 4.59543 137.243 3.88742 138.252 3.06069C139.261 2.23395 140.051 1.21372 140.622 0H145.058Z" fill="#CFD8DC"/>
<path d="M147.867 9.92085C147.867 6.2445 148.526 3.67194 149.842 2.20317C151.167 0.734389 153.181 0 155.884 0C157.183 0 158.25 0.162709 159.083 0.488127C159.917 0.804749 160.597 1.22252 161.124 1.74142C161.65 2.25154 162.063 2.79244 162.361 3.36412C162.668 3.927 162.914 4.58663 163.098 5.34301C163.458 6.7854 163.638 8.28936 163.638 9.85488C163.638 13.3641 163.046 15.9323 161.861 17.5594C160.676 19.1865 158.636 20 155.74 20C154.116 20 152.804 19.7405 151.804 19.2216C150.803 18.7027 149.983 17.942 149.342 16.9393C148.877 16.2269 148.513 15.2551 148.249 14.0237C147.995 12.7836 147.867 11.416 147.867 9.92085ZM153.186 9.93404C153.186 12.3967 153.401 14.0809 153.831 14.9868C154.27 15.8839 154.901 16.3325 155.726 16.3325C156.271 16.3325 156.74 16.1434 157.135 15.7652C157.539 15.3782 157.833 14.7713 158.017 13.9446C158.21 13.1179 158.307 11.8294 158.307 10.0792C158.307 7.51099 158.087 5.78716 157.648 4.90765C157.218 4.01935 156.569 3.5752 155.7 3.5752C154.814 3.5752 154.173 4.02814 153.778 4.93404C153.383 5.83113 153.186 7.4978 153.186 9.93404Z" fill="#CFD8DC"/>
<path d="M177 0V19.6702H171.576V6.781C170.699 7.44943 169.848 7.99033 169.023 8.40369C168.206 8.81706 167.18 9.21284 165.942 9.59103V5.1847C167.768 4.59543 169.185 3.88742 170.194 3.06069C171.203 2.23395 171.993 1.21372 172.564 0H177Z" fill="#CFD8DC"/>
</svg>
