<svg width="884" height="70" viewBox="0 0 884 70" fill="none" xmlns="http://www.w3.org/2000/svg">
<path d="M8.64414 61.2073C3.13164 55.9573 0.244141 48.3448 0.244141 38.6323V2.40735H22.2941V37.8448C22.2941 42.5698 23.0816 46.2449 24.9191 48.3448C26.7566 50.4448 29.1191 51.4949 32.2691 51.4949C35.4191 51.4949 38.0441 50.4448 39.6191 48.3448C41.4566 46.2449 42.2441 42.5698 42.2441 37.8448V2.40735H64.0316V38.3699C64.0316 48.0824 61.1441 55.6948 55.6316 61.2073C49.8566 66.7198 42.2441 69.3448 32.0066 69.3448C22.0316 69.3448 14.1566 66.7198 8.64414 61.2073ZM82.4066 8.96985C84.7691 8.96985 86.0816 9.75735 86.6066 10.5448C87.3941 11.3323 88.1816 12.1199 88.1816 14.4823C88.1816 16.8448 87.3941 17.8948 86.6066 18.4198C85.8191 19.2073 84.7691 19.9948 82.4066 19.9948C80.0441 19.9948 78.9941 19.2073 78.2066 18.4198C77.4191 17.6323 76.6316 16.5823 76.6316 14.4823C76.6316 12.3823 77.4191 11.3323 78.2066 10.5448C78.9941 10.0198 80.0441 8.96985 82.4066 8.96985ZM82.4066 2.40735C78.9941 2.40735 76.1066 3.71985 73.7441 5.81985C71.3816 7.91985 70.3316 10.8074 70.3316 14.4823C70.3316 18.1573 71.3816 21.0448 73.7441 23.1448C76.1066 25.5073 78.9941 26.5573 82.6691 26.5573C86.3441 26.5573 89.2316 25.5073 91.5941 23.1448C93.9566 20.7823 95.0066 17.8948 95.0066 14.4823C95.0066 11.0698 93.9566 7.91985 91.5941 5.81985C88.9691 3.71985 86.0816 2.40735 82.4066 2.40735ZM120.732 19.7323H101.569V2.40735H161.944V19.4698H142.782V67.7698H120.732V19.7323ZM182.157 65.1448C176.644 62.2573 172.182 58.0573 169.032 53.0698C165.882 47.8198 164.307 42.0448 164.307 35.4823C164.307 28.9198 165.882 23.1448 169.032 17.8948C172.182 12.6448 176.644 8.70735 182.157 5.81985C187.669 2.40735 193.969 1.09485 201.057 1.09485C208.144 1.09485 214.444 2.66985 219.957 5.55735C225.469 8.44485 229.932 12.6448 233.082 17.6323C236.232 22.6198 237.807 28.6573 237.807 35.2198C237.807 41.7823 236.232 47.5574 233.082 52.8074C229.932 58.0574 225.469 61.9948 219.957 64.8823C214.444 67.7698 208.144 69.3448 201.057 69.3448C193.969 69.3448 187.669 68.0323 182.157 65.1448ZM208.407 49.6573C210.507 48.3448 212.344 46.5073 213.657 43.8823C214.969 41.5198 215.494 38.6323 215.494 35.2198C215.494 31.8073 214.969 28.9198 213.657 26.5573C212.344 24.1948 210.507 22.0948 208.407 20.7823C206.307 19.4698 203.682 18.6823 201.057 18.6823C198.432 18.6823 195.807 19.4698 193.707 20.7823C191.607 22.0948 189.769 23.9323 188.457 26.5573C187.144 28.9198 186.619 31.8073 186.619 35.2198C186.619 38.6323 187.407 41.5198 188.457 43.8823C189.769 46.2448 191.607 48.3448 193.707 49.6573C195.807 50.9698 198.432 51.7573 201.057 51.7573C203.682 51.4948 206.307 50.9698 208.407 49.6573ZM245.944 2.40735H278.232C285.582 2.40735 291.882 3.71985 297.657 6.34485C303.169 8.96985 307.632 12.9073 310.782 17.6323C313.932 22.6198 315.507 28.3948 315.507 34.9573C315.507 41.5198 313.932 47.2948 310.782 52.2823C307.632 57.2698 303.432 60.9448 297.657 63.5698C292.144 66.1948 285.582 67.5073 278.232 67.5073H245.944V2.40735ZM277.444 50.7073C282.169 50.7073 285.844 49.3948 288.732 46.7698C291.619 44.1448 292.932 40.2073 292.932 35.2198C292.932 30.2323 291.619 26.5574 288.732 23.6698C285.844 21.0448 282.169 19.7323 277.444 19.7323H267.994V50.7073H277.444ZM366.957 56.4823H342.019L337.557 67.7698H315.244L343.857 2.40735H365.644L393.994 68.0323H371.157L366.957 56.4823ZM360.919 40.7323L354.619 24.1948L348.319 40.7323H360.919ZM432.319 44.1448V67.7698H410.269V43.6199L385.594 2.14485H408.957L422.344 24.7198L435.732 2.14485H456.994L432.319 44.1448Z" fill="#263238"/>
<path d="M497.99 1.97115C503.943 1.97115 509.113 2.97382 513.5 4.97915C517.887 6.92182 521.271 9.74182 523.652 13.4392C526.033 17.0738 527.224 21.3665 527.224 26.3172C527.224 31.2678 526.033 35.5605 523.652 39.1952C521.271 42.8298 517.887 45.6498 513.5 47.6552C509.113 49.5978 503.943 50.5692 497.99 50.5692H486.522V67.7712H467.91V1.97115H497.99ZM496.862 35.9052C500.685 35.9052 503.567 35.0905 505.51 33.4612C507.453 31.7692 508.424 29.3878 508.424 26.3172C508.424 23.2465 507.453 20.8652 505.51 19.1732C503.567 17.4812 500.685 16.6352 496.862 16.6352H486.522V35.9052H496.862Z" fill="#CFD8DC"/>
<path d="M568.91 69.0872C561.954 69.0872 555.688 67.6145 550.11 64.6692C544.596 61.7238 540.24 57.6505 537.044 52.4492C533.911 47.2478 532.344 41.3885 532.344 34.8712C532.344 28.3538 533.911 22.4945 537.044 17.2932C540.24 12.0918 544.596 8.01849 550.11 5.07315C555.688 2.12782 561.954 0.655151 568.91 0.655151C575.866 0.655151 582.102 2.12782 587.616 5.07315C593.194 8.01849 597.549 12.0918 600.682 17.2932C603.878 22.4945 605.476 28.3538 605.476 34.8712C605.476 41.3885 603.878 47.2478 600.682 52.4492C597.549 57.6505 593.194 61.7238 587.616 64.6692C582.102 67.6145 575.866 69.0872 568.91 69.0872ZM568.91 53.6712C572.232 53.6712 575.24 52.8878 577.934 51.3212C580.629 49.7545 582.76 47.5612 584.326 44.7412C585.893 41.8585 586.676 38.5685 586.676 34.8712C586.676 31.1738 585.893 27.9152 584.326 25.0952C582.76 22.2125 580.629 19.9878 577.934 18.4212C575.24 16.8545 572.232 16.0712 568.91 16.0712C565.589 16.0712 562.581 16.8545 559.886 18.4212C557.192 19.9878 555.061 22.2125 553.494 25.0952C551.928 27.9152 551.144 31.1738 551.144 34.8712C551.144 38.5685 551.928 41.8585 553.494 44.7412C555.061 47.5612 557.192 49.7545 559.886 51.3212C562.581 52.8878 565.589 53.6712 568.91 53.6712Z" fill="#CFD8DC"/>
<path d="M647.482 69.0872C640.588 69.0872 634.384 67.6458 628.87 64.7632C623.418 61.8178 619.125 57.7445 615.992 52.5432C612.858 47.3418 611.292 41.4512 611.292 34.8712C611.292 28.2912 612.858 22.4005 615.992 17.1992C619.125 11.9978 623.418 7.95582 628.87 5.07315C634.384 2.12782 640.588 0.655151 647.482 0.655151C653.498 0.655151 658.918 1.72049 663.744 3.85116C668.569 5.98182 672.58 9.05249 675.776 13.0632L663.932 23.7792C659.67 18.6405 654.5 16.0712 648.422 16.0712C644.85 16.0712 641.654 16.8545 638.834 18.4212C636.076 19.9878 633.914 22.2125 632.348 25.0952C630.844 27.9152 630.092 31.1738 630.092 34.8712C630.092 38.5685 630.844 41.8585 632.348 44.7412C633.914 47.5612 636.076 49.7545 638.834 51.3212C641.654 52.8878 644.85 53.6712 648.422 53.6712C654.5 53.6712 659.67 51.1018 663.932 45.9632L675.776 56.6792C672.58 60.6898 668.569 63.7605 663.744 65.8912C658.918 68.0218 653.498 69.0872 647.482 69.0872Z" fill="#CFD8DC"/>
<path d="M714.861 69.0872C707.967 69.0872 701.763 67.6458 696.249 64.7632C690.797 61.8178 686.504 57.7445 683.371 52.5432C680.237 47.3418 678.671 41.4512 678.671 34.8712C678.671 28.2912 680.237 22.4005 683.371 17.1992C686.504 11.9978 690.797 7.95582 696.249 5.07315C701.763 2.12782 707.967 0.655151 714.861 0.655151C720.877 0.655151 726.297 1.72049 731.123 3.85116C735.948 5.98182 739.959 9.05249 743.155 13.0632L731.311 23.7792C727.049 18.6405 721.879 16.0712 715.801 16.0712C712.229 16.0712 709.033 16.8545 706.213 18.4212C703.455 19.9878 701.293 22.2125 699.727 25.0952C698.223 27.9152 697.471 31.1738 697.471 34.8712C697.471 38.5685 698.223 41.8585 699.727 44.7412C701.293 47.5612 703.455 49.7545 706.213 51.3212C709.033 52.8878 712.229 53.6712 715.801 53.6712C721.879 53.6712 727.049 51.1018 731.311 45.9632L743.155 56.6792C739.959 60.6898 735.948 63.7605 731.123 65.8912C726.297 68.0218 720.877 69.0872 714.861 69.0872Z" fill="#CFD8DC"/>
<path d="M751.562 1.97115H769.893V40.6052L797.059 1.97115H814.543V67.7712H796.213V29.2312L769.141 67.7712H751.562V1.97115Z" fill="#CFD8DC"/>
<path d="M883.756 1.97115V67.7712H865.426V51.2272H855.274L844.464 67.7712H824.912L838.26 48.5012C833.873 46.5585 830.521 43.7698 828.202 40.1352C825.883 36.4378 824.724 32.0512 824.724 26.9752C824.724 21.8365 825.915 17.3872 828.296 13.6272C830.677 9.86715 834.093 6.98449 838.542 4.97915C842.991 2.97382 848.193 1.97115 854.146 1.97115H883.756ZM854.522 16.6352C847.19 16.6352 843.524 19.9878 843.524 26.6932C843.524 30.0145 844.433 32.5525 846.25 34.3072C848.13 35.9992 850.825 36.8452 854.334 36.8452H865.426V16.6352H854.522Z" fill="#CFD8DC"/>
</svg>
