<svg width="68" height="18" viewBox="0 0 68 18" fill="none" xmlns="http://www.w3.org/2000/svg">
<path d="M7.656 3.42705C7.95535 2.50574 9.25876 2.50574 9.55811 3.42705L10.2909 5.68237C10.4248 6.0944 10.8087 6.37336 11.242 6.37336L13.6134 6.37336C14.5821 6.37336 14.9849 7.61297 14.2011 8.18237L12.2826 9.57624C11.9322 9.83088 11.7855 10.2822 11.9194 10.6943L12.6522 12.9496C12.9515 13.8709 11.897 14.637 11.1133 14.0676L9.19484 12.6738C8.84435 12.4191 8.36976 12.4191 8.01927 12.6738L6.10078 14.0676C5.31706 14.637 4.26259 13.8709 4.56194 12.9496L5.29474 10.6943C5.42861 10.2822 5.28195 9.83088 4.93146 9.57624L3.01297 8.18237C2.22926 7.61297 2.63203 6.37336 3.60076 6.37336L5.97214 6.37336C6.40537 6.37336 6.78933 6.0944 6.9232 5.68237L7.656 3.42705Z" fill="#FFCC24"/>
<path d="M20.2274 3.42705C20.5268 2.50574 21.8302 2.50574 22.1296 3.42705L22.8624 5.68237C22.9962 6.0944 23.3802 6.37336 23.8134 6.37336L26.1848 6.37336C27.1535 6.37336 27.5563 7.61297 26.7726 8.18237L24.8541 9.57624C24.5036 9.83088 24.3569 10.2822 24.4908 10.6943L25.2236 12.9496C25.523 13.8709 24.4685 14.637 23.6848 14.0676L21.7663 12.6738C21.4158 12.4191 20.9412 12.4191 20.5907 12.6738L18.6722 14.0676C17.8885 14.637 16.834 13.8709 17.1334 12.9496L17.8662 10.6943C18.0001 10.2822 17.8534 9.83088 17.5029 9.57624L15.5844 8.18237C14.8007 7.61297 15.2035 6.37336 16.1722 6.37336L18.5436 6.37336C18.9768 6.37336 19.3608 6.0944 19.4946 5.68237L20.2274 3.42705Z" fill="#FFCC24"/>
<path d="M32.7989 3.42705C33.0982 2.50574 34.4016 2.50574 34.701 3.42705L35.4338 5.68237C35.5676 6.0944 35.9516 6.37336 36.3848 6.37336L38.7562 6.37336C39.7249 6.37336 40.1277 7.61297 39.344 8.18237L37.4255 9.57624C37.075 9.83088 36.9284 10.2822 37.0622 10.6943L37.795 12.9496C38.0944 13.8709 37.0399 14.637 36.2562 14.0676L34.3377 12.6738C33.9872 12.4191 33.5126 12.4191 33.1621 12.6738L31.2436 14.0676C30.4599 14.637 29.4054 13.8709 29.7048 12.9496L30.4376 10.6943C30.5715 10.2822 30.4248 9.83088 30.0743 9.57624L28.1558 8.18237C27.3721 7.61297 27.7749 6.37336 28.7436 6.37336L31.115 6.37336C31.5482 6.37336 31.9322 6.0944 32.0661 5.68237L32.7989 3.42705Z" fill="#FFCC24"/>
<path d="M45.3703 3.42705C45.6696 2.50574 46.9731 2.50574 47.2724 3.42705L48.0052 5.68237C48.1391 6.0944 48.523 6.37336 48.9563 6.37336L51.3276 6.37336C52.2964 6.37336 52.6991 7.61297 51.9154 8.18237L49.9969 9.57624C49.6465 9.83088 49.4998 10.2822 49.6337 10.6943L50.3665 12.9496C50.6658 13.8709 49.6113 14.637 48.8276 14.0676L46.9091 12.6738C46.5586 12.4191 46.0841 12.4191 45.7336 12.6738L43.8151 14.0676C43.0314 14.637 41.9769 13.8709 42.2762 12.9496L43.009 10.6943C43.1429 10.2822 42.9962 9.83088 42.6458 9.57624L40.7273 8.18237C39.9436 7.61297 40.3463 6.37336 41.3151 6.37336L43.6864 6.37336C44.1197 6.37336 44.5036 6.0944 44.6375 5.68237L45.3703 3.42705Z" fill="#FFCC24"/>
<path d="M57.9419 3.42705C58.2412 2.50574 59.5446 2.50574 59.844 3.42705L60.5768 5.68237C60.7106 6.0944 61.0946 6.37336 61.5278 6.37336L63.8992 6.37336C64.8679 6.37336 65.2707 7.61297 64.487 8.18237L62.5685 9.57624C62.218 9.83088 62.0714 10.2822 62.2052 10.6943L62.938 12.9496C63.2374 13.8709 62.1829 14.637 61.3992 14.0676L59.4807 12.6738C59.1302 12.4191 58.6556 12.4191 58.3051 12.6738L56.3866 14.0676C55.6029 14.637 54.5484 13.8709 54.8478 12.9496L55.5806 10.6943C55.7145 10.2822 55.5678 9.83088 55.2173 9.57624L53.2988 8.18237C52.5151 7.61297 52.9179 6.37336 53.8866 6.37336L56.258 6.37336C56.6912 6.37336 57.0752 6.0944 57.2091 5.68237L57.9419 3.42705Z" fill="url(#paint0_linear)"/>
<defs>
<linearGradient id="paint0_linear" x1="58.8929" y1="0.5" x2="68.7321" y2="0.5" gradientUnits="userSpaceOnUse">
<stop stop-color="#FFCC24"/>
<stop offset="0.177083" stop-color="#686868"/>
</linearGradient>
</defs>
</svg>
