<svg width="24" height="48" viewBox="0 0 24 48" fill="none" xmlns="http://www.w3.org/2000/svg">
<path d="M17.1318 2.50386C17.4058 2.02434 18.0166 1.85775 18.4961 2.13176C18.9757 2.40577 19.1423 3.01662 18.8682 3.49614L17.1318 2.50386ZM6 24L5.13176 24.4961L4.84825 24L5.13176 23.5039L6 24ZM18.8682 44.5039C19.1423 44.9834 18.9757 45.5942 18.4961 45.8682C18.0166 46.1423 17.4058 45.9757 17.1318 45.4961L18.8682 44.5039ZM18.8682 3.49614L6.86824 24.4961L5.13176 23.5039L17.1318 2.50386L18.8682 3.49614ZM6.86824 23.5039L18.8682 44.5039L17.1318 45.4961L5.13176 24.4961L6.86824 23.5039Z" fill="#B0BEC5"/>
</svg>
