<svg width="24" height="48" viewBox="0 0 24 48" fill="none" xmlns="http://www.w3.org/2000/svg">
<path d="M6.86824 45.4961C6.59423 45.9757 5.98338 46.1423 5.50386 45.8682C5.02434 45.5942 4.85775 44.9834 5.13176 44.5039L6.86824 45.4961ZM18 24L18.8682 23.5039L19.1518 24L18.8682 24.4961L18 24ZM5.13176 3.49614C4.85775 3.01662 5.02435 2.40577 5.50386 2.13176C5.98338 1.85775 6.59424 2.02435 6.86825 2.50386L5.13176 3.49614ZM5.13176 44.5039L17.1318 23.5039L18.8682 24.4961L6.86824 45.4961L5.13176 44.5039ZM17.1318 24.4961L5.13176 3.49614L6.86825 2.50386L18.8682 23.5039L17.1318 24.4961Z" fill="#B0BEC5"/>
</svg>
