<svg width="56" height="56" viewBox="0 0 56 56" fill="#263238" xmlns="http://www.w3.org/2000/svg">
<path d="M28 0C12.544 0 0 12.544 0 28C0 43.456 12.544 56 28 56C43.456 56 56 43.456 56 28C56 12.544 43.456 0 28 0ZM14.196 45.584C15.4 43.064 22.736 40.6 28 40.6C33.264 40.6 40.628 43.064 41.804 45.584C37.996 48.608 33.208 50.4 28 50.4C22.792 50.4 18.004 48.608 14.196 45.584ZM45.808 41.524C41.804 36.652 32.088 35 28 35C23.912 35 14.196 36.652 10.192 41.524C7.336 37.772 5.6 33.096 5.6 28C5.6 15.652 15.652 5.6 28 5.6C40.348 5.6 50.4 15.652 50.4 28C50.4 33.096 48.664 37.772 45.808 41.524ZM28 11.2C22.568 11.2 18.2 15.568 18.2 21C18.2 26.432 22.568 30.8 28 30.8C33.432 30.8 37.8 26.432 37.8 21C37.8 15.568 33.432 11.2 28 11.2ZM28 25.2C25.676 25.2 23.8 23.324 23.8 21C23.8 18.676 25.676 16.8 28 16.8C30.324 16.8 32.2 18.676 32.2 21C32.2 23.324 30.324 25.2 28 25.2Z"/>
</svg>
