<svg width="57" height="50" viewBox="0 0 57 50" fill="none" xmlns="http://www.w3.org/2000/svg">
<path fill-rule="evenodd" clip-rule="evenodd" d="M21.375 33.13V38H52.2442C53.5591 38 54.625 36.9338 54.625 35.6072V4.76778C54.625 3.44628 53.5813 2.375 52.2442 2.375H4.75585C3.44094 2.375 2.375 3.44119 2.375 4.76778V35.6072C2.375 36.9287 3.41871 38 4.75585 38H9.5V33.13C8.03084 31.6308 7.125 29.5774 7.125 27.3125C7.125 22.7216 10.8466 19 15.4375 19C20.0284 19 23.75 22.7216 23.75 27.3125C23.75 29.5774 22.8442 31.6308 21.375 33.13ZM11.875 34.8251V44.1749L15.4375 40.6125L19 44.1749V34.8251C17.9203 35.338 16.7124 35.625 15.4375 35.625C14.1626 35.625 12.9547 35.338 11.875 34.8251ZM9.5 40.375H4.76175C2.13044 40.375 0 38.2482 0 35.6247V4.75025C0 2.11389 2.13191 0 4.76175 0H52.2383C54.8696 0 57 2.12676 57 4.75025V35.6247C57 38.2611 54.8681 40.375 52.2383 40.375H21.375V49.875L15.4375 43.9375L9.5 49.875V40.375ZM7.125 11.875V14.25H49.875V11.875H7.125ZM28.5 19V21.375H49.875V19H28.5ZM35.625 26.125V28.5H49.875V26.125H35.625ZM15.4375 33.25C18.7167 33.25 21.375 30.5917 21.375 27.3125C21.375 24.0333 18.7167 21.375 15.4375 21.375C12.1583 21.375 9.5 24.0333 9.5 27.3125C9.5 30.5917 12.1583 33.25 15.4375 33.25Z"/>
</svg>
