<svg width="21" height="32" viewBox="0 0 21 32" fill="none" xmlns="http://www.w3.org/2000/svg">
<path d="M10.5 0C4.70098 0 0 4.70098 0 10.5C0 12.3651 0.50085 14.1094 1.35345 15.6266C1.49507 15.8786 1.64351 16.1267 1.80469 16.3656L10.5 31.5L19.1953 16.3656C19.3292 16.1674 19.4447 15.9574 19.5641 15.75L19.6468 15.6266C20.4986 14.1094 21 12.3651 21 10.5C21 4.70098 16.2986 0 10.5 0ZM10.5 5.25C13.3993 5.25 15.75 7.60056 15.75 10.5C15.75 13.3993 13.3993 15.75 10.5 15.75C7.60056 15.75 5.25 13.3993 5.25 10.5C5.25 7.60056 7.60056 5.25 10.5 5.25Z" fill="#FF0000"/>
</svg>
