<svg width="219" height="20" viewBox="0 0 219 20" fill="none" xmlns="http://www.w3.org/2000/svg">
<path d="M2.42759 17.6154C0.834483 16.0769 0 13.8462 0 11V0.384615H6.37241V10.7692C6.37241 12.1538 6.6 13.2308 7.13103 13.8462C7.66207 14.4615 8.34483 14.7692 9.25517 14.7692C10.1655 14.7692 10.9241 14.4615 11.3793 13.8462C11.9103 13.2308 12.1379 12.1538 12.1379 10.7692V0.384615H18.4345V10.9231C18.4345 13.7692 17.6 16 16.0069 17.6154C14.3379 19.2308 12.1379 20 9.17931 20C6.29655 20 4.02069 19.2308 2.42759 17.6154ZM23.7448 2.30769C24.4276 2.30769 24.8069 2.53846 24.9586 2.76923C25.1862 3 25.4138 3.23077 25.4138 3.92308C25.4138 4.61538 25.1862 4.92308 24.9586 5.07692C24.731 5.30769 24.4276 5.53846 23.7448 5.53846C23.0621 5.53846 22.7586 5.30769 22.531 5.07692C22.3034 4.84615 22.0759 4.53846 22.0759 3.92308C22.0759 3.30769 22.3034 3 22.531 2.76923C22.7586 2.61538 23.0621 2.30769 23.7448 2.30769ZM23.7448 0.384615C22.7586 0.384615 21.9241 0.769231 21.2414 1.38462C20.5586 2 20.2552 2.84615 20.2552 3.92308C20.2552 5 20.5586 5.84615 21.2414 6.46154C21.9241 7.15385 22.7586 7.46154 23.8207 7.46154C24.8828 7.46154 25.7172 7.15385 26.4 6.46154C27.0828 5.76923 27.3862 4.92308 27.3862 3.92308C27.3862 2.92308 27.0828 2 26.4 1.38462C25.6414 0.769231 24.8069 0.384615 23.7448 0.384615ZM34.8207 5.46154H29.2828V0.384615H46.731V5.38462H41.1931V19.5385H34.8207V5.46154ZM52.5724 18.7692C50.9793 17.9231 49.6897 16.6923 48.7793 15.2308C47.869 13.6923 47.4138 12 47.4138 10.0769C47.4138 8.15385 47.869 6.46154 48.7793 4.92308C49.6897 3.38462 50.9793 2.23077 52.5724 1.38462C54.1655 0.384616 55.9862 0 58.0345 0C60.0828 0 61.9034 0.461538 63.4965 1.30769C65.0897 2.15385 66.3793 3.38462 67.2897 4.84615C68.2 6.30769 68.6552 8.07692 68.6552 10C68.6552 11.9231 68.2 13.6154 67.2897 15.1538C66.3793 16.6923 65.0897 17.8462 63.4965 18.6923C61.9034 19.5385 60.0828 20 58.0345 20C55.9862 20 54.1655 19.6154 52.5724 18.7692ZM60.1586 14.2308C60.7655 13.8462 61.2966 13.3077 61.6759 12.5385C62.0552 11.8462 62.2069 11 62.2069 10C62.2069 9 62.0552 8.15385 61.6759 7.46154C61.2966 6.76923 60.7655 6.15385 60.1586 5.76923C59.5517 5.38462 58.7931 5.15385 58.0345 5.15385C57.2759 5.15385 56.5172 5.38462 55.9103 5.76923C55.3034 6.15385 54.7724 6.69231 54.3931 7.46154C54.0138 8.15385 53.8621 9 53.8621 10C53.8621 11 54.0897 11.8462 54.3931 12.5385C54.7724 13.2308 55.3034 13.8462 55.9103 14.2308C56.5172 14.6154 57.2759 14.8462 58.0345 14.8462C58.7931 14.7692 59.5517 14.6154 60.1586 14.2308ZM71.0069 0.384615H80.3379C82.4621 0.384615 84.2828 0.769231 85.9517 1.53846C87.5448 2.30769 88.8345 3.46154 89.7448 4.84615C90.6552 6.30769 91.1103 8 91.1103 9.92308C91.1103 11.8462 90.6552 13.5385 89.7448 15C88.8345 16.4615 87.6207 17.5385 85.9517 18.3077C84.3586 19.0769 82.4621 19.4615 80.3379 19.4615H71.0069V0.384615ZM80.1103 14.5385C81.4759 14.5385 82.5379 14.1538 83.3724 13.3846C84.2069 12.6154 84.5862 11.4615 84.5862 10C84.5862 8.53846 84.2069 7.46154 83.3724 6.61539C82.5379 5.84615 81.4759 5.46154 80.1103 5.46154H77.3793V14.5385H80.1103ZM105.979 16.2308H98.7724L97.4828 19.5385H91.0345L99.3034 0.384615H105.6L113.793 19.6154H107.193L105.979 16.2308ZM104.234 11.6154L102.414 6.76923L100.593 11.6154H104.234ZM124.869 12.6154V19.5385H118.497V12.4615L111.366 0.307692H118.117L121.986 6.92308L125.855 0.307692H132L124.869 12.6154Z" fill="#fff"/>
<path d="M137 0.329815H142.351L149.334 11.029V0.329815H154.736V19.6702H149.334L142.389 9.05013V19.6702H137V0.329815Z" fill="#CFD8DC"/>
<path d="M158.531 0.329815H173.889V4.4591H164.274V7.53298H173.193V11.4776H164.274V15.2902H174.167V19.6702H158.531V0.329815Z" fill="#CFD8DC"/>
<path d="M175.356 0.329815H180.796L182.757 11.1346L185.616 0.329815H191.043L193.914 11.1346L195.875 0.329815H201.289L197.203 19.6702H191.587L188.335 7.4934L185.097 19.6702H179.48L175.356 0.329815Z" fill="#CFD8DC"/>
<path d="M202.175 13.2718L207.627 12.9156C207.745 13.839 207.986 14.5427 208.348 15.0264C208.939 15.8091 209.782 16.2005 210.878 16.2005C211.696 16.2005 212.325 16.0026 212.763 15.6069C213.21 15.2023 213.434 14.7361 213.434 14.2084C213.434 13.7071 213.223 13.2586 212.801 12.8628C212.38 12.467 211.401 12.0932 209.866 11.7414C207.353 11.1522 205.561 10.3694 204.49 9.39314C203.41 8.41689 202.871 7.17238 202.871 5.65963C202.871 4.66579 203.145 3.72911 203.693 2.8496C204.25 1.9613 205.08 1.26649 206.185 0.765172C207.298 0.255057 208.821 0 210.752 0C213.122 0 214.927 0.461741 216.166 1.38522C217.414 2.29991 218.157 3.75989 218.393 5.76517L212.991 6.09499C212.848 5.22427 212.544 4.59103 212.08 4.19525C211.625 3.79947 210.992 3.60158 210.183 3.60158C209.516 3.60158 209.015 3.7511 208.677 4.05013C208.34 4.34037 208.171 4.69657 208.171 5.11873C208.171 5.42656 208.31 5.70361 208.589 5.94987C208.859 6.20493 209.5 6.44239 210.512 6.66227C213.016 7.22515 214.809 7.79683 215.888 8.37731C216.976 8.94899 217.764 9.66139 218.254 10.5145C218.751 11.3676 219 12.3219 219 13.3773C219 14.6174 218.671 15.7608 218.013 16.8074C217.355 17.854 216.436 18.65 215.255 19.1953C214.075 19.7317 212.586 20 210.79 20C207.636 20 205.451 19.3668 204.237 18.1003C203.023 16.8338 202.335 15.2243 202.175 13.2718Z" fill="#CFD8DC"/>
</svg>
