<svg width="15" height="44" viewBox="0 0 15 44" fill="none" xmlns="http://www.w3.org/2000/svg">
<path d="M13.1318 0.503861C13.4058 0.0243436 14.0166 -0.142253 14.4961 0.131757C14.9757 0.405767 15.1423 1.01662 14.8682 1.49614L13.1318 0.503861ZM2 22L1.13176 22.4961L0.848248 22L1.13176 21.5039L2 22ZM14.8682 42.5039C15.1423 42.9834 14.9757 43.5942 14.4961 43.8682C14.0166 44.1423 13.4058 43.9757 13.1318 43.4961L14.8682 42.5039ZM14.8682 1.49614L2.86824 22.4961L1.13176 21.5039L13.1318 0.503861L14.8682 1.49614ZM2.86824 21.5039L14.8682 42.5039L13.1318 43.4961L1.13176 22.4961L2.86824 21.5039Z"/>
</svg>
