<svg width="40" height="64" viewBox="0 0 40 64" fill="none" xmlns="http://www.w3.org/2000/svg">
<path d="M29.5934 0.709056C29.754 0.484478 30.0664 0.432682 30.2909 0.593366C30.5155 0.75405 30.5673 1.06637 30.4066 1.29094L29.5934 0.709056ZM8 31.748L7.59114 32.0358L7.38688 31.7457L7.59336 31.4571L8 31.748ZM30.4089 62.7122C30.5678 62.938 30.5136 63.2499 30.2878 63.4089C30.062 63.5678 29.7501 63.5136 29.5911 63.2878L30.4089 62.7122ZM30.4066 1.29094L8.40664 32.039L7.59336 31.4571L29.5934 0.709056L30.4066 1.29094ZM8.40886 31.4602L30.4089 62.7122L29.5911 63.2878L7.59114 32.0358L8.40886 31.4602Z" fill="black"/>
</svg>
