<svg width="278" height="56" viewBox="0 0 278 56" fill="none" xmlns="http://www.w3.org/2000/svg">
<g filter="url(#filter0_d)">
<path d="M13.3 42.85C10.15 39.85 8.5 35.5 8.5 29.95V9.25H21.1V29.5C21.1 32.2 21.55 34.3 22.6 35.5C23.65 36.7 25 37.3 26.8 37.3C28.6 37.3 30.1 36.7 31 35.5C32.05 34.3 32.5 32.2 32.5 29.5V9.25H44.95V29.8C44.95 35.35 43.3 39.7 40.15 42.85C36.85 46 32.5 47.5 26.65 47.5C20.95 47.5 16.45 46 13.3 42.85ZM55.45 13C56.8 13 57.55 13.45 57.85 13.9C58.3 14.35 58.75 14.8 58.75 16.15C58.75 17.5 58.3 18.1 57.85 18.4C57.4 18.85 56.8 19.3 55.45 19.3C54.1 19.3 53.5 18.85 53.05 18.4C52.6 17.95 52.15 17.35 52.15 16.15C52.15 14.95 52.6 14.35 53.05 13.9C53.5 13.6 54.1 13 55.45 13ZM55.45 9.25C53.5 9.25 51.85 10 50.5 11.2C49.15 12.4 48.55 14.05 48.55 16.15C48.55 18.25 49.15 19.9 50.5 21.1C51.85 22.45 53.5 23.05 55.6 23.05C57.7 23.05 59.35 22.45 60.7 21.1C62.05 19.75 62.65 18.1 62.65 16.15C62.65 14.2 62.05 12.4 60.7 11.2C59.2 10 57.55 9.25 55.45 9.25ZM77.35 19.15H66.4V9.25H100.9V19H89.95V46.6H77.35V19.15ZM112.45 45.1C109.3 43.45 106.75 41.05 104.95 38.2C103.15 35.2 102.25 31.9 102.25 28.15C102.25 24.4 103.15 21.1 104.95 18.1C106.75 15.1 109.3 12.85 112.45 11.2C115.6 9.25 119.2 8.5 123.25 8.5C127.3 8.5 130.9 9.4 134.05 11.05C137.2 12.7 139.75 15.1 141.55 17.95C143.35 20.8 144.25 24.25 144.25 28C144.25 31.75 143.35 35.05 141.55 38.05C139.75 41.05 137.2 43.3 134.05 44.95C130.9 46.6 127.3 47.5 123.25 47.5C119.2 47.5 115.6 46.75 112.45 45.1ZM127.45 36.25C128.65 35.5 129.7 34.45 130.45 32.95C131.2 31.6 131.5 29.95 131.5 28C131.5 26.05 131.2 24.4 130.45 23.05C129.7 21.7 128.65 20.5 127.45 19.75C126.25 19 124.75 18.55 123.25 18.55C121.75 18.55 120.25 19 119.05 19.75C117.85 20.5 116.8 21.55 116.05 23.05C115.3 24.4 115 26.05 115 28C115 29.95 115.45 31.6 116.05 32.95C116.8 34.3 117.85 35.5 119.05 36.25C120.25 37 121.75 37.45 123.25 37.45C124.75 37.3 126.25 37 127.45 36.25ZM148.9 9.25H167.35C171.55 9.25 175.15 10 178.45 11.5C181.6 13 184.15 15.25 185.95 17.95C187.75 20.8 188.65 24.1 188.65 27.85C188.65 31.6 187.75 34.9 185.95 37.75C184.15 40.6 181.75 42.7 178.45 44.2C175.3 45.7 171.55 46.45 167.35 46.45H148.9V9.25ZM166.9 36.85C169.6 36.85 171.7 36.1 173.35 34.6C175 33.1 175.75 30.85 175.75 28C175.75 25.15 175 23.05 173.35 21.4C171.7 19.9 169.6 19.15 166.9 19.15H161.5V36.85H166.9ZM218.05 40.15H203.8L201.25 46.6H188.5L204.85 9.25H217.3L233.5 46.75H220.45L218.05 40.15ZM214.6 31.15L211 21.7L207.4 31.15H214.6ZM255.4 33.1V46.6H242.8V32.8L228.7 9.1H242.05L249.7 22L257.35 9.1H269.5L255.4 33.1Z" fill="white"/>
</g>
<defs>
<filter id="filter0_d" x="-1" y="-4" width="280" height="64" filterUnits="userSpaceOnUse" color-interpolation-filters="sRGB">
<feFlood flood-opacity="0" result="BackgroundImageFix"/>
<feColorMatrix in="SourceAlpha" type="matrix" values="0 0 0 0 0 0 0 0 0 0 0 0 0 0 0 0 0 0 127 0"/>
<feOffset/>
<feGaussianBlur stdDeviation="4"/>
<feColorMatrix type="matrix" values="0 0 0 0 0 0 0 0 0 0 0 0 0 0 0 0 0 0 0.35 0"/>
<feBlend mode="normal" in2="BackgroundImageFix" result="effect1_dropShadow"/>
<feBlend mode="normal" in="SourceGraphic" in2="effect1_dropShadow" result="shape"/>
</filter>
</defs>
</svg>
