<svg width="40" height="40" viewBox="0 0 40 40" fill="none" xmlns="http://www.w3.org/2000/svg">
<path fill-rule="evenodd" clip-rule="evenodd" d="M35.5556 29.4222C35.7333 29.3333 35.8222 29.3333 36 29.3333H38.6667C39.3778 29.3333 40 29.9556 40 30.6667C40 31.3778 39.3778 32 38.6667 32H36C35.7333 32 35.5556 31.9111 35.2889 31.8222C34.7556 33.5111 33.4222 34.8444 31.8222 35.2889C31.9111 35.4667 32 35.7333 32 36V38.6667C32 39.3778 31.3778 40 30.6667 40C29.9556 40 29.3333 39.3778 29.3333 38.6667V36C29.3333 35.8222 29.3333 35.7333 29.4222 35.5556H24.8C24.8889 35.7333 24.8889 35.8222 24.8889 36V38.6667C24.8889 39.3778 24.2667 40 23.5556 40C22.8444 40 22.2222 39.3778 22.2222 38.6667V36C22.2222 35.8222 22.2222 35.7333 22.3111 35.5556H17.6889C17.7778 35.7333 17.7778 35.8222 17.7778 36V38.6667C17.7778 39.3778 17.1556 40 16.4444 40C15.7333 40 15.1111 39.3778 15.1111 38.6667V36C15.1111 35.8222 15.1111 35.7333 15.2 35.5556H10.5778C10.6667 35.7333 10.6667 35.8222 10.6667 36V38.6667C10.6667 39.3778 10.0444 40 9.33333 40C8.62222 40 8 39.3778 8 38.6667V36C8 35.7333 8.08889 35.5556 8.17778 35.2889C6.48889 34.7556 5.15556 33.4222 4.71111 31.8222C4.44444 31.9111 4.26667 32 4 32H1.33333C0.622222 32 0 31.3778 0 30.6667C0 29.9556 0.622222 29.3333 1.33333 29.3333H4C4.17778 29.3333 4.26667 29.3333 4.44444 29.4222V24.8C4.26667 24.8889 4.17778 24.8889 4 24.8889H1.33333C0.622222 24.8889 0 24.2667 0 23.5556C0 22.8444 0.622222 22.2222 1.33333 22.2222H4C4.17778 22.2222 4.26667 22.2222 4.44444 22.3111V17.6889C4.26667 17.7778 4.17778 17.7778 4 17.7778H1.33333C0.622222 17.7778 0 17.1556 0 16.4444C0 15.7333 0.622222 15.1111 1.33333 15.1111H4C4.17778 15.1111 4.26667 15.1111 4.44444 15.2V10.5778C4.26667 10.6667 4.17778 10.6667 4 10.6667H1.33333C0.622222 10.6667 0 10.0444 0 9.33333C0 8.62222 0.622222 8 1.33333 8H4C4.26667 8 4.44444 8.08889 4.71111 8.17778C5.24444 6.48889 6.57778 5.15556 8.17778 4.71111C8.08889 4.44444 8 4.26667 8 4V1.33333C8 0.622222 8.62222 0 9.33333 0C10.0444 0 10.6667 0.622222 10.6667 1.33333V4C10.6667 4.17778 10.6667 4.26667 10.5778 4.44444H15.2C15.1111 4.26667 15.1111 4.17778 15.1111 4V1.33333C15.1111 0.622222 15.7333 0 16.4444 0C17.1556 0 17.7778 0.622222 17.7778 1.33333V4C17.7778 4.17778 17.7778 4.26667 17.6889 4.44444H22.3111C22.2222 4.26667 22.2222 4.17778 22.2222 4V1.33333C22.2222 0.622222 22.8444 0 23.5556 0C24.2667 0 24.8889 0.622222 24.8889 1.33333V4C24.8889 4.17778 24.8889 4.26667 24.8 4.44444H29.4222C29.3333 4.26667 29.3333 4.17778 29.3333 4V1.33333C29.3333 0.622222 29.9556 0 30.6667 0C31.3778 0 32 0.622222 32 1.33333V4C32 4.26667 31.9111 4.44444 31.8222 4.71111C33.5111 5.24444 34.8444 6.57778 35.2889 8.17778C35.5556 8.08889 35.7333 8 36 8H38.6667C39.3778 8 40 8.62222 40 9.33333C40 10.0444 39.3778 10.6667 38.6667 10.6667H36C35.8222 10.6667 35.7333 10.6667 35.5556 10.5778V15.2C35.7333 15.1111 35.8222 15.1111 36 15.1111H38.6667C39.3778 15.1111 40 15.7333 40 16.4444C40 17.1556 39.3778 17.7778 38.6667 17.7778H36C35.8222 17.7778 35.7333 17.7778 35.5556 17.6889V22.3111C35.7333 22.2222 35.8222 22.2222 36 22.2222H38.6667C39.3778 22.2222 40 22.8444 40 23.5556C40 24.2667 39.3778 24.8889 38.6667 24.8889H36C35.8222 24.8889 35.7333 24.8889 35.5556 24.8V29.4222ZM10.6667 7.11111C8.71111 7.11111 7.11111 8.71111 7.11111 10.6667V29.3333C7.11111 31.2889 8.71111 32.8889 10.6667 32.8889H29.3333C31.2889 32.8889 32.8889 31.2889 32.8889 29.3333V10.6667C32.8889 8.71111 31.2889 7.11111 29.3333 7.11111H10.6667ZM11.5556 8.88889H25.7778L31.1111 14.2222V28.4444C31.1111 29.9556 29.9556 31.1111 28.4444 31.1111H11.5556C10.0444 31.1111 8.88889 29.9556 8.88889 28.4444V11.5556C8.88889 10.0444 10.0444 8.88889 11.5556 8.88889ZM12 14.9333L13.2444 15.2V23.4667L12 23.7333V25.1556H16.8V23.7333L15.5556 23.4667V15.2L16.8 14.9333V13.5111H12V14.9333ZM28.1778 19.3778V19.2C28.1778 17.5111 27.7333 16.1778 26.7556 15.0222C25.7778 13.8667 24.5333 13.3333 22.9333 13.3333C21.4222 13.3333 20.0889 13.8667 19.2 15.0222C18.2222 16.0889 17.7778 17.5111 17.7778 19.2V19.3778C17.7778 21.0667 18.2222 22.4889 19.2 23.5556C20.1778 24.6222 21.4222 25.2444 22.9333 25.2444C23.1111 25.2444 23.3778 25.2444 23.5556 25.2444C23.7333 25.2444 24 25.1556 24.1778 25.1556L26.9333 27.0222L28.5333 25.7778L26.0444 24.2667C26.6667 23.7333 27.2 23.1111 27.5556 22.2222C27.9111 21.3333 28.1778 20.4444 28.1778 19.3778ZM25.8667 19.2V19.3778C25.8667 20.6222 25.6 21.6 25.1556 22.3111C24.6222 23.0222 23.9111 23.3778 22.9333 23.3778C21.9556 23.3778 21.2444 23.0222 20.8 22.3111C20.3556 21.6 20.0889 20.6222 20.0889 19.3778V19.2C20.0889 17.9556 20.3556 17.0667 20.8 16.2667C21.2444 15.5556 21.9556 15.2 22.9333 15.2C23.9111 15.2 24.6222 15.5556 25.1556 16.3556C25.6889 17.1556 25.8667 18.0444 25.8667 19.2Z" fill="#019EE3"/>
</svg>
