<svg width="126" height="26" viewBox="0 0 126 26" fill="none" xmlns="http://www.w3.org/2000/svg">
<path d="M7.70623 10.5893L12.6001 5.69562L17.4966 10.5919L20.3442 7.7443L12.6001 0L4.85862 7.74171L7.70623 10.5893Z" fill="#F5BC00"/>
<path d="M5.69526 12.5996L2.8477 9.75208L-8.25367e-07 12.5998L2.84756 15.4473L5.69526 12.5996Z" fill="#F5BC00"/>
<path d="M7.70623 14.6108L12.6001 19.5045L17.4964 14.6084L20.3456 17.4545L20.3442 17.4561L12.6001 25.2001L4.85843 17.4586L4.85444 17.4547L7.70623 14.6108Z" fill="#F5BC00"/>
<path d="M22.3528 15.4487L25.2005 12.601L22.353 9.75342L19.5053 12.6011L22.3528 15.4487Z" fill="#F5BC00"/>
<path d="M15.4885 12.5986H15.4897L12.6001 9.70898L10.4647 11.8444H10.4645L10.2193 12.0899L9.71311 12.596L9.70913 12.6L9.71311 12.6042L12.6001 15.4912L15.4897 12.6016L15.4911 12.6L15.4885 12.5986Z" fill="#F5BC00"/>
<path d="M29.6398 6.10625H35.8332C37.3704 6.10625 38.5328 6.50074 39.3205 7.28972C39.9302 7.90076 40.2349 8.65809 40.2349 9.56151V9.59973C40.2349 9.98148 40.1877 10.3188 40.0928 10.6114C39.9981 10.9044 39.8715 11.1681 39.7132 11.4036C39.5554 11.6393 39.3719 11.846 39.1633 12.024C38.9545 12.2023 38.7302 12.3552 38.49 12.4822C39.2626 12.7752 39.8709 13.1726 40.3143 13.6754C40.7576 14.1784 40.9795 14.8752 40.9795 15.7659V15.8039C40.9795 16.4149 40.8621 16.9493 40.627 17.4077C40.3919 17.8657 40.0552 18.2476 39.6167 18.5532C39.1782 18.8587 38.651 19.0876 38.0348 19.2404C37.4185 19.3931 36.7357 19.4693 35.9863 19.4693H29.6398V6.10625ZM35.214 11.5087C35.8633 11.5087 36.3788 11.3976 36.7603 11.1747C37.1421 10.952 37.333 10.5923 37.333 10.0961V10.0579C37.333 9.61267 37.1674 9.27231 36.8366 9.03666C36.5056 8.8012 36.0283 8.68337 35.4049 8.68337H32.5032V11.5087H35.214ZM35.9968 16.8924C36.6459 16.8924 37.1546 16.775 37.524 16.5393C37.893 16.3039 38.0778 15.9378 38.0778 15.4414V15.4034C38.0778 14.958 37.9058 14.6049 37.5623 14.3438C37.2185 14.0832 36.665 13.9526 35.9013 13.9526H32.5032V16.8926H35.9968V16.8924Z" fill="#F5BC00"/>
<path d="M44.668 6.10625H47.6082V19.4697H44.668V6.10625Z" fill="#F5BC00"/>
<path d="M52.0612 6.10625H54.7717L61.0336 14.3344V6.10625H63.9353V19.4697H61.4346L54.9628 10.9745V19.4697H52.0612V6.10625Z" fill="#F5BC00"/>
<path d="M72.8362 6.01091H75.5469L81.2744 19.4697H78.2006L76.9788 16.4726H71.3279L70.1062 19.4697H67.1086L72.8362 6.01091ZM75.9288 13.876L74.1532 9.54261L72.3782 13.876H75.9288Z" fill="#F5BC00"/>
<path d="M84.448 6.10625H87.1591L93.4205 14.3344V6.10625H96.3223V19.4697H93.8216L87.3497 10.9745V19.4697H84.448V6.10625Z" fill="#F5BC00"/>
<path d="M106.903 19.6986C105.923 19.6986 105.013 19.5203 104.173 19.1642C103.333 18.8081 102.607 18.3211 101.997 17.7037C101.386 17.0865 100.908 16.3578 100.565 15.5178C100.221 14.6777 100.049 13.7805 100.049 12.8259V12.7879C100.049 11.8333 100.221 10.9394 100.565 10.1057C100.908 9.27209 101.386 8.54024 101.997 7.91029C102.607 7.28034 103.339 6.78375 104.192 6.4211C105.044 6.05846 105.987 5.87714 107.017 5.87714C107.641 5.87714 108.21 5.92829 108.726 6.0298C109.241 6.1319 109.709 6.27163 110.129 6.44976C110.549 6.6281 110.937 6.84445 111.294 7.09882C111.649 7.35359 111.981 7.63343 112.286 7.93895L110.416 10.0961C109.893 9.62538 109.362 9.25597 108.821 8.98887C108.28 8.72176 107.673 8.58801 106.998 8.58801C106.438 8.58801 105.919 8.69628 105.443 8.91264C104.965 9.12899 104.555 9.42794 104.211 9.80969C103.868 10.1914 103.6 10.6339 103.409 11.1365C103.218 11.6394 103.123 12.177 103.123 12.7497V12.7877C103.123 13.3603 103.218 13.9015 103.409 14.4102C103.6 14.9195 103.864 15.3648 104.202 15.7465C104.538 16.1283 104.946 16.4308 105.423 16.6535C105.901 16.8765 106.426 16.9875 106.998 16.9875C107.762 16.9875 108.407 16.8476 108.936 16.5676C109.464 16.2879 109.989 15.906 110.511 15.4221L112.382 17.3122C112.038 17.6814 111.681 18.0124 111.313 18.3048C110.943 18.5977 110.539 18.8489 110.1 19.0591C109.661 19.2689 109.18 19.4283 108.659 19.5362C108.137 19.6443 107.552 19.6986 106.903 19.6986Z" fill="#F5BC00"/>
<path d="M115.842 6.10625H125.902V8.72178H118.744V11.4327H125.044V14.048H118.744V16.8544H125.998V19.4697H115.842V6.10625Z" fill="#F5BC00"/>
</svg>
