<svg width="24" height="24" viewBox="0 0 24 24" fill="none" xmlns="http://www.w3.org/2000/svg">
<path d="M3 2.99997C2.4 2.99997 2 3.39997 2 3.99997V7.99997V9.49997C2 11.2 3 12.6 4.5 13.2V19.5C4.5 20.3 5.2 21 6 21C6.8 21 7.5 20.3 7.5 19.5V13.2C9 12.6 10 11.2 10 9.49997V7.99997V3.99997C10 3.39997 9.6 2.99997 9 2.99997C8.4 2.99997 8 3.39997 8 3.99997V7.99997C8 8.29997 7.8 8.49997 7.5 8.49997C7.2 8.49997 7 8.29997 7 7.99997V3.99997C7 3.39997 6.6 2.99997 6 2.99997C5.4 2.99997 5 3.39997 5 3.99997V7.99997C5 8.29997 4.8 8.49997 4.5 8.49997C4.2 8.49997 4 8.29997 4 7.99997V3.99997C4 3.39997 3.6 2.99997 3 2.99997ZM19.9 2.99997C19.8 2.99997 19.6 3.09997 19.5 3.19997L16 5.19997V8.99997H12V11H13L14 21H20L21 11H22V8.99997H18V6.29997L20.5 4.79997C21 4.59997 21.1 3.99997 20.8 3.49997C20.6 3.09997 20.3 2.89997 19.9 2.99997Z" fill="black"/>
</svg>
