<svg width="24" height="24" viewBox="0 0 24 24" fill="none" xmlns="http://www.w3.org/2000/svg">
<path d="M19 8C19.6 8 20 8.4 20 9C20 9.6 19.6 10 19 10C18.4 10 18 9.6 18 9C18 8.4 18.4 8 19 8ZM2 2V11C2 14 4.2 16.5 7.1 16.9C7.7 19.9 10.4 22 13.5 22C17.1 22 20 19.1 20 15.5V11.8C21.2 11.4 22 10.3 22 9C22 7.3 20.7 6 19 6C17.3 6 16 7.3 16 9C16 10.3 16.8 11.4 18 11.8V15.4C18 17.9 16 19.9 13.5 19.9C11.5 19.9 9.8 18.7 9.2 16.9C12 16.3 14 13.8 14 11V2H10V5H12V11C12 13.2 10.2 15 8 15C5.8 15 4 13.2 4 11V5H6V2H2Z" fill="black"/>
</svg>
