<svg width="24" height="24" viewBox="0 0 24 24" fill="none" xmlns="http://www.w3.org/2000/svg">
<path d="M1.99999 11C1.49999 10.7 1.39999 10.1 1.59999 9.6L3.09999 7C3.19999 6.8 3.39999 6.7 3.59999 6.6L11.4 2.2C11.6 2.1 11.8 2 12 2C12.2 2 12.4 2.1 12.6 2.2L20.5 6.6C20.7 6.7 20.9 6.9 20.9 7.1L22.4 9.6C22.7 10.1 22.5 10.7 22 11L21 11.6V16.6C21 17 20.8 17.3 20.5 17.5L12.6 21.9C12.4 21.9 12.2 22 12 22C11.8 22 11.6 21.9 11.4 21.8L3.49999 17.4C3.19999 17.2 2.99999 16.9 2.99999 16.5V11C2.69999 11.1 2.29999 11.1 1.99999 11ZM12 4.1V10.8L18 7.5L12 4.1ZM4.99999 15.9L11 19.3V12.6L4.99999 9.2V15.9ZM19 15.9V12.7L14 15.6C13.7 15.8 13.3 15.8 13 15.6V19.3L19 15.9ZM13.9 13.4L20.2 9.8L19.6 8.8L13.3 12.4L13.9 13.4Z" fill="black"/>
</svg>
