<svg width="48" height="48" viewBox="0 0 48 48" fill="none" xmlns="http://www.w3.org/2000/svg">
<path fill-rule="evenodd" clip-rule="evenodd" d="M47 4H1V44H47V4Z" stroke="#1977CC" stroke-width="2" stroke-linecap="round" stroke-linejoin="round"/>
<path d="M47 14H1" stroke="#1977CC" stroke-width="2" stroke-linecap="round" stroke-linejoin="round"/>
<path d="M40 8.5C39.7239 8.5 39.5 8.72386 39.5 9C39.5 9.27614 39.7239 9.5 40 9.5C40.2761 9.5 40.5 9.27614 40.5 9C40.5 8.72386 40.2761 8.5 40 8.5" stroke="#1977CC" stroke-width="2" stroke-linecap="round" stroke-linejoin="round"/>
<path d="M34 8.5C33.7239 8.5 33.5 8.72386 33.5 9C33.5 9.27614 33.7239 9.5 34 9.5C34.2761 9.5 34.5 9.27614 34.5 9C34.5 8.72386 34.2761 8.5 34 8.5" stroke="#1977CC" stroke-width="2" stroke-linecap="round" stroke-linejoin="round"/>
<path d="M28 8.5C27.7239 8.5 27.5 8.72386 27.5 9C27.5 9.27614 27.7239 9.5 28 9.5C28.2761 9.5 28.5 9.27614 28.5 9C28.5 8.72386 28.2761 8.5 28 8.5" stroke="#1977CC" stroke-width="2" stroke-linecap="round" stroke-linejoin="round"/>
<path d="M35 14V44" stroke="#1977CC" stroke-width="2" stroke-linecap="round" stroke-linejoin="round"/>
<path d="M35 28H1" stroke="#1977CC" stroke-width="2" stroke-linecap="round" stroke-linejoin="round"/>
</svg>
