<svg width="53" height="49" viewBox="0 0 53 49" fill="none" xmlns="http://www.w3.org/2000/svg">
<path fill-rule="evenodd" clip-rule="evenodd" d="M27 19C27.0047 13.3156 22.6774 8.56394 17.0174 8.03819C11.3573 7.51245 6.22895 11.3858 5.18654 16.9739C4.14413 22.5619 7.53108 28.0238 13 29.574V32.5L11.5 34L13 35.5V38.5L11.5 40L13 41.5V45L16 48L19 45V29.574C23.73 28.2332 26.996 23.9164 27 19Z" stroke="#1977CC" stroke-width="2" stroke-linecap="round" stroke-linejoin="round"/>
<path fill-rule="evenodd" clip-rule="evenodd" d="M16 21C17.6569 21 19 19.6569 19 18C19 16.3431 17.6569 15 16 15C14.3431 15 13 16.3431 13 18C13 19.6569 14.3431 21 16 21Z" stroke="#1977CC" stroke-width="2" stroke-linecap="round" stroke-linejoin="round"/>
<path d="M20.255 8.82727C21.2305 7.90326 22.3907 7.14508 23.7057 6.61501C28.9779 4.48976 35.001 6.73156 37.6006 11.7867C39.849 16.1589 38.9231 21.4921 35.3327 24.8506L42.3986 38.5632L41.106 42.6041L37.065 41.3115L35.4618 38.2002L33.4414 37.554L34.0877 35.5334L32.7135 32.8667L30.6931 32.2204L31.3394 30.1999L29.9991 27.5989C27.7682 28.0502 25.5468 27.7911 23.5801 26.9686" stroke="#1977CC" stroke-width="2" stroke-linecap="round" stroke-linejoin="round"/>
<path d="M25.5466 13.5491C25.6837 13.4449 25.8318 13.3511 25.9902 13.2695C27.463 12.5106 29.2722 13.0893 30.0311 14.5621C30.7901 16.035 30.2113 17.8442 28.7385 18.6031C28.1821 18.8898 27.5777 18.9856 27 18.9144" stroke="#1977CC" stroke-width="2" stroke-linecap="round" stroke-linejoin="round"/>
</svg>
