<svg width="48" height="49" viewBox="0 0 48 49" fill="none" xmlns="http://www.w3.org/2000/svg">
<path fill-rule="evenodd" clip-rule="evenodd" d="M24 47.002C36.7025 47.002 47 36.7045 47 24.002C47 11.2994 36.7025 1.00195 24 1.00195C11.2975 1.00195 1 11.2994 1 24.002C1 36.7045 11.2975 47.002 24 47.002Z" stroke="#1977CC" stroke-width="2" stroke-linecap="round" stroke-linejoin="round"/>
<path fill-rule="evenodd" clip-rule="evenodd" d="M24 36.002C30.6274 36.002 36 30.6294 36 24.002C36 17.3745 30.6274 12.002 24 12.002C17.3726 12.002 12 17.3745 12 24.002C12 30.6294 17.3726 36.002 24 36.002Z" stroke="#1977CC" stroke-width="2" stroke-linecap="round" stroke-linejoin="round"/>
<line x1="3.44574" y1="15.5981" x2="12.106" y2="20.5981" stroke="#1977CC" stroke-width="2" stroke-linecap="round" stroke-linejoin="round"/>
<line x1="6.44574" y1="10.4019" x2="15.106" y2="15.4019" stroke="#1977CC" stroke-width="2" stroke-linecap="round" stroke-linejoin="round"/>
<line x1="32.8906" y1="32.5981" x2="41.5508" y2="37.5981" stroke="#1977CC" stroke-width="2" stroke-linecap="round" stroke-linejoin="round"/>
<line x1="35.8906" y1="27.4019" x2="44.5508" y2="32.4019" stroke="#1977CC" stroke-width="2" stroke-linecap="round" stroke-linejoin="round"/>
<line x1="21" y1="2" x2="21" y2="12" stroke="#1977CC" stroke-width="2" stroke-linecap="round" stroke-linejoin="round"/>
<line x1="27" y1="2" x2="27" y2="12" stroke="#1977CC" stroke-width="2" stroke-linecap="round" stroke-linejoin="round"/>
<line x1="21" y1="36" x2="21" y2="46" stroke="#1977CC" stroke-width="2" stroke-linecap="round" stroke-linejoin="round"/>
<line x1="27" y1="36" x2="27" y2="46" stroke="#1977CC" stroke-width="2" stroke-linecap="round" stroke-linejoin="round"/>
<line x1="41.5534" y1="10.4024" x2="32.8932" y2="15.4024" stroke="#1977CC" stroke-width="2" stroke-linecap="round" stroke-linejoin="round"/>
<line x1="44.5534" y1="15.5986" x2="35.8932" y2="20.5986" stroke="#1977CC" stroke-width="2" stroke-linecap="round" stroke-linejoin="round"/>
<line x1="12.1085" y1="27.4024" x2="3.44828" y2="32.4024" stroke="#1977CC" stroke-width="2" stroke-linecap="round" stroke-linejoin="round"/>
<line x1="15.1085" y1="32.5986" x2="6.44828" y2="37.5986" stroke="#1977CC" stroke-width="2" stroke-linecap="round" stroke-linejoin="round"/>
</svg>
