<svg width="48" height="48" viewBox="0 0 48 48" fill="none" xmlns="http://www.w3.org/2000/svg">
<path d="M29.5 5.19995C29.7761 5.19995 30 5.42381 30 5.69995C30 5.97609 29.7761 6.19995 29.5 6.19995C29.2239 6.19995 29 5.97609 29 5.69995C29 5.42381 29.2239 5.19995 29.5 5.19995" stroke="#1977CC" stroke-width="2" stroke-linecap="round" stroke-linejoin="round"/>
<path d="M35.5 5.19995C35.7761 5.19995 36 5.42381 36 5.69995C36 5.97609 35.7761 6.19995 35.5 6.19995C35.2239 6.19995 35 5.97609 35 5.69995C35 5.42381 35.2239 5.19995 35.5 5.19995" stroke="#1977CC" stroke-width="2" stroke-linecap="round" stroke-linejoin="round"/>
<path fill-rule="evenodd" clip-rule="evenodd" d="M24.18 41.2C26.7757 41.2 28.88 39.0958 28.88 36.5C28.88 33.9043 26.7757 31.8 24.18 31.8C21.5842 31.8 19.48 33.9043 19.48 36.5C19.48 39.0958 21.5842 41.2 24.18 41.2Z" stroke="#1977CC" stroke-width="2" stroke-linecap="round" stroke-linejoin="round"/>
<path fill-rule="evenodd" clip-rule="evenodd" d="M9.39601 41.2C11.9918 41.2 14.096 39.0958 14.096 36.5C14.096 33.9043 11.9918 31.8 9.39601 31.8C6.80028 31.8 4.69601 33.9043 4.69601 36.5C4.69601 39.0958 6.80028 41.2 9.39601 41.2Z" stroke="#1977CC" stroke-width="2" stroke-linecap="round" stroke-linejoin="round"/>
<path fill-rule="evenodd" clip-rule="evenodd" d="M38.636 41.2C41.2318 41.2 43.336 39.0958 43.336 36.5C43.336 33.9043 41.2318 31.8 38.636 31.8C36.0403 31.8 33.936 33.9043 33.936 36.5C33.936 39.0958 36.0403 41.2 38.636 41.2Z" stroke="#1977CC" stroke-width="2" stroke-linecap="round" stroke-linejoin="round"/>
<path d="M46 46.8C44.222 44.5942 41.5411 43.3118 38.708 43.3118C35.8749 43.3118 33.194 44.5942 31.416 46.8C29.5772 44.6043 26.8639 43.331 24 43.32" stroke="#1977CC" stroke-width="2" stroke-linecap="round" stroke-linejoin="round"/>
<path d="M2 46.8C3.77799 44.5942 6.45886 43.3118 9.292 43.3118C12.1251 43.3118 14.806 44.5942 16.584 46.8C18.4228 44.6043 21.1361 43.331 24 43.32" stroke="#1977CC" stroke-width="2" stroke-linecap="round" stroke-linejoin="round"/>
<rect x="8" y="1" width="34" height="26" stroke="#1977CC" stroke-width="2" stroke-linecap="round" stroke-linejoin="round"/>
<line x1="14" y1="21" x2="36" y2="21" stroke="#1977CC" stroke-width="2" stroke-linecap="round" stroke-linejoin="round"/>
<line x1="14" y1="16" x2="36" y2="16" stroke="#1977CC" stroke-width="2" stroke-linecap="round" stroke-linejoin="round"/>
</svg>
