<svg width="51" height="48" viewBox="0 0 51 48" fill="none" xmlns="http://www.w3.org/2000/svg">
<path fill-rule="evenodd" clip-rule="evenodd" d="M39.2632 3.20304C39.0338 2.60213 38.5137 2.15978 37.8838 2.02981C37.2539 1.89983 36.6012 2.1002 36.1527 2.56124C30.5975 8.26914 25.0103 13.6445 11.0304 19.053L9.27023 19.7249C6.35386 20.838 4.89206 24.1046 6.00521 27.021L7.3489 30.5413C8.46204 33.4577 11.7286 34.9195 14.645 33.8064L16.4052 33.1345C30.4334 27.8527 38.1813 28.1381 46.1269 28.693C46.7685 28.7379 47.3887 28.4524 47.7718 27.9358C48.155 27.4191 48.2481 26.7427 48.0187 26.1418L39.2632 3.20304Z" stroke="#1977CC" stroke-width="2" stroke-linecap="round" stroke-linejoin="round"/>
<path d="M42.2973 11.152L43.1774 10.8161C44.6356 10.2595 46.2688 10.9904 46.8254 12.4486L47.4973 14.2088C48.0538 15.667 47.3229 17.3003 45.8647 17.8569L44.9847 18.1928" stroke="#1977CC" stroke-width="2" stroke-linecap="round" stroke-linejoin="round"/>
<path d="M11.9105 18.7171L17.2853 32.7986C19.0343 36.5004 23.8989 43.7856 29.3649 43.3126C30.4532 40.8806 30.7947 39.5739 30.8294 39.2245C28.5653 38.5762 23.7765 36.0683 22.7338 31.2231" stroke="#1977CC" stroke-width="2" stroke-linecap="round" stroke-linejoin="round"/>
</svg>
